<svg width="20" height="20" viewBox="0 0 20 20" fill="none" xmlns="http://www.w3.org/2000/svg">
<path d="M10.3646 3.68407C10.3646 3.27576 10.0361 2.94727 9.62779 2.94727C9.21948 2.94727 8.89099 3.27576 8.89099 3.68407V9.08728H3.48778C3.07947 9.08728 2.75098 9.41577 2.75098 9.82408C2.75098 10.2324 3.07947 10.5609 3.48778 10.5609H8.89099V15.9641C8.89099 16.3724 9.21948 16.7009 9.62779 16.7009C10.0361 16.7009 10.3646 16.3724 10.3646 15.9641V10.5609H15.7678C16.1761 10.5609 16.5046 10.2324 16.5046 9.82408C16.5046 9.41577 16.1761 9.08728 15.7678 9.08728H10.3646V3.68407Z" fill="#6B6F76"/>
</svg>
