<svg width="20" height="20" viewBox="0 0 20 20" fill="none" xmlns="http://www.w3.org/2000/svg">
<g clip-path="url(#clip0_495_847)">
<path d="M11.25 0.9375C11.25 1.45703 11.668 1.875 12.1875 1.875H16.8008L7.77734 10.8984C7.41016 11.2656 7.41016 11.8594 7.77734 12.2227C8.14453 12.5859 8.73828 12.5898 9.10156 12.2227L18.125 3.19922V7.8125C18.125 8.33203 18.543 8.75 19.0625 8.75C19.582 8.75 20 8.33203 20 7.8125V0.9375C20 0.417969 19.582 0 19.0625 0L12.1875 0C11.668 0 11.25 0.417969 11.25 0.9375ZM3.125 3.75C1.39844 3.75 0 5.14844 0 6.875V16.875C0 18.6016 1.39844 20 3.125 20H13.125C14.8516 20 16.25 18.6016 16.25 16.875V13.4375C16.25 12.918 15.832 12.5 15.3125 12.5C14.793 12.5 14.375 12.918 14.375 13.4375V16.875C14.375 17.5664 13.8164 18.125 13.125 18.125H3.125C2.43359 18.125 1.875 17.5664 1.875 16.875V6.875C1.875 6.18359 2.43359 5.625 3.125 5.625H6.5625C7.08203 5.625 7.5 5.20703 7.5 4.6875C7.5 4.16797 7.08203 3.75 6.5625 3.75H3.125Z" fill="black"/>
</g>
<defs>
<clipPath id="clip0_495_847">
<rect width="20" height="20" fill="white"/>
</clipPath>
</defs>
</svg>
