<svg width="20" height="20" viewBox="0 0 20 20" fill="none" xmlns="http://www.w3.org/2000/svg">
<path d="M13.3941 2.07792C13.657 2.25126 13.7696 2.57772 13.6714 2.8753L11.9727 7.97447H15.4655C16.026 7.97447 16.4796 8.42805 16.4796 8.98853C16.4796 9.27744 16.3582 9.5519 16.1416 9.74257L7.46573 17.5055C7.23172 17.7164 6.88503 17.7424 6.62213 17.569C6.35923 17.3957 6.24655 17.0692 6.34478 16.7716L8.04354 11.6725H4.55068C3.9902 11.6725 3.53662 11.2189 3.53662 10.6584C3.53662 10.3724 3.65796 10.0979 3.87464 9.90436L12.5505 2.14148C12.7845 1.93058 13.1312 1.90746 13.3941 2.07792ZM5.52718 10.2857H9.0056C9.22805 10.2857 9.43895 10.3926 9.56896 10.5746C9.69897 10.7566 9.73364 10.9878 9.6643 11.1987L8.48557 14.732L14.489 9.36122H11.0106C10.7881 9.36122 10.5772 9.25432 10.4472 9.07231C10.3172 8.8903 10.2826 8.65918 10.3519 8.44828L11.5306 4.91497L5.52718 10.2857Z" fill="#212B36"/>
</svg>
