<svg width="11" height="12" viewBox="0 0 11 12" fill="none" xmlns="http://www.w3.org/2000/svg">
<g clip-path="url(#clip0_378_1292)">
<path d="M3.375 1.875V3H7.125V1.875H3.375ZM2.25 3V1.875H1.5C1.29375 1.875 1.125 2.04375 1.125 2.25V3H2.25ZM1.125 4.125V5.4375H4.6875V4.125H1.125ZM1.125 7.875H2.25V6.5625H1.125V7.875ZM1.125 9V9.75C1.125 9.95625 1.29375 10.125 1.5 10.125H4.6875V9H1.125ZM3.375 7.875H7.125V6.5625H3.375V7.875ZM8.25 7.875H9.375V6.5625H8.25V7.875ZM9.375 9H5.8125V10.125H9C9.20625 10.125 9.375 9.95625 9.375 9.75V9ZM9.375 4.125H5.8125V5.4375H9.375V4.125ZM9.375 3V2.25C9.375 2.04375 9.20625 1.875 9 1.875H8.25V3H9.375ZM0 2.25C0 1.42266 0.672656 0.75 1.5 0.75H9C9.82734 0.75 10.5 1.42266 10.5 2.25V9.75C10.5 10.5773 9.82734 11.25 9 11.25H1.5C0.672656 11.25 0 10.5773 0 9.75V2.25Z" fill="black"/>
</g>
<defs>
<clipPath id="clip0_378_1292">
<rect width="10.5" height="12" fill="white"/>
</clipPath>
</defs>
</svg>
