<svg width="16" height="16" viewBox="0 0 16 16" fill="none" xmlns="http://www.w3.org/2000/svg">
<path d="M3.35587 0.322412C4.16786 0.0517488 5.05123 0.43841 5.40518 1.21471L6.58598 3.81129C6.90126 4.50728 6.70496 5.32819 6.11009 5.80706L5.39031 6.3811C6.14876 7.86826 7.33849 9.09963 8.79293 9.91459L9.42348 9.12342C9.90235 8.52558 10.7233 8.32928 11.4193 8.64753L14.0158 9.82834C14.7951 10.1823 15.1788 11.0657 14.9081 11.8776C14.2924 13.7306 12.4186 15.3338 10.1224 14.9293C4.95606 14.0192 1.21139 10.2745 0.301246 5.10809C-0.103262 2.81192 1.50287 0.94107 3.3529 0.322412H3.35587ZM4.1054 1.8066C4.05484 1.69357 3.92694 1.63706 3.80797 1.67573C2.46358 2.12485 1.45528 3.41868 1.71107 4.85825C2.51711 9.43275 5.79779 12.7164 10.3723 13.5224C11.8119 13.7753 13.1057 12.7699 13.5548 11.4255C13.5935 11.3066 13.537 11.1787 13.4239 11.1281L10.8274 9.94434C10.7262 9.89972 10.6073 9.92649 10.5389 10.0127L9.54246 11.259C9.33425 11.5178 8.97734 11.601 8.6799 11.4583C6.52352 10.4351 4.79842 8.65348 3.84961 6.45546C3.72171 6.161 3.80797 5.81598 4.05781 5.6167L5.21482 4.69169C5.30108 4.62328 5.33082 4.50431 5.28323 4.40318L4.10243 1.80362L4.1054 1.8066Z" fill="black"/>
</svg>
