<svg width="19" height="19" viewBox="0 0 19 19" fill="none" xmlns="http://www.w3.org/2000/svg">
<g clip-path="url(#clip0_266_8759)">
<path d="M16.7147 1.82422H1.51952C0.680618 1.82422 0 2.52428 0 3.38715V14.8487C0 15.7115 0.680618 16.4116 1.51952 16.4116H16.7147C17.5536 16.4116 18.2342 15.7115 18.2342 14.8487V3.38715C18.2342 2.52428 17.5536 1.82422 16.7147 1.82422Z" fill="#6B6F76"/>
<g clip-path="url(#clip1_266_8759)">
<path d="M9.5002 3.70881C9.36724 3.62571 9.20474 3.62571 9.07178 3.70881L4.8836 6.30772C4.68232 6.43237 4.55859 6.6692 4.55859 6.92681C4.55859 7.31945 4.83928 7.63522 5.1883 7.63522H13.3855C13.7327 7.63522 14.0152 7.31945 14.0152 6.92681C14.0152 6.6692 13.8915 6.43237 13.6902 6.30772L9.5002 3.70881ZM8.77447 6.63804H6.18733L9.28599 4.7143L12.3846 6.63804H9.79751C9.84737 6.5404 9.87691 6.42614 9.87691 6.30564C9.87691 5.93793 9.61284 5.64085 9.28599 5.64085C8.95913 5.64085 8.69506 5.93793 8.69506 6.30564C8.69506 6.42614 8.72461 6.5404 8.77447 6.63804ZM5.74044 8.30001V11.624C5.49484 11.624 5.29725 11.8463 5.29725 12.1226C5.29725 12.3989 5.49484 12.6211 5.74044 12.6211H12.9793C13.2249 12.6211 13.4225 12.3989 13.4225 12.1226C13.4225 11.8463 13.2249 11.624 12.9793 11.624H12.8315V8.30001H11.9451V11.624H10.7633V8.30001H9.87691V11.624H8.69506V8.30001H7.80868V11.624H6.62683V8.30001H5.74044ZM5.14952 13.2859C4.90392 13.2859 4.70632 13.5082 4.70632 13.7845C4.70632 14.0608 4.90392 14.2831 5.14952 14.2831H13.5702C13.8158 14.2831 14.0134 14.0608 14.0134 13.7845C14.0134 13.5082 13.8158 13.2859 13.5702 13.2859H5.14952Z" fill="white"/>
</g>
</g>
<defs>
<clipPath id="clip0_266_8759">
<rect width="18.2342" height="18.2342" fill="white"/>
</clipPath>
<clipPath id="clip1_266_8759">
<rect width="9.45479" height="10.6366" fill="white" transform="translate(4.55859 3.64648)"/>
</clipPath>
</defs>
</svg>
