<svg width="16" height="16" viewBox="0 0 16 16" fill="none" xmlns="http://www.w3.org/2000/svg">
<path d="M7.37259 0.188805C7.65196 -0.0629352 8.07562 -0.0629352 8.35499 0.188805L15.4774 6.57442C15.7813 6.84458 15.8059 7.31122 15.5327 7.61515C15.2594 7.91908 14.7959 7.94364 14.4919 7.67041L14.2463 7.44937V13.7521C14.2463 14.8358 13.3652 15.7169 12.2815 15.7169H3.43991C2.3562 15.7169 1.47511 14.8358 1.47511 13.7521V7.44937L1.22951 7.67041C0.925577 7.94057 0.462006 7.91601 0.188775 7.61515C-0.0844557 7.31429 -0.0568257 6.84765 0.244035 6.57442L7.37259 0.188805ZM7.86379 1.72688L2.95178 6.13234V13.7552C2.95178 14.0253 3.17282 14.2464 3.44298 14.2464H4.91659V11.0536C4.91659 9.8317 5.90513 8.84316 7.12699 8.84316H8.6006C9.82246 8.84316 10.811 9.8317 10.811 11.0536V14.2464H12.2846C12.5548 14.2464 12.7758 14.0253 12.7758 13.7552V6.13234L7.86379 1.72995V1.72688ZM6.39019 14.2464H9.3374V11.0536C9.3374 10.6452 9.00891 10.3168 8.6006 10.3168H7.12699C6.71868 10.3168 6.39019 10.6452 6.39019 11.0536V14.2464Z" fill="#212B36"/>
</svg>
