<svg width="12" height="12" viewBox="0 0 12 12" fill="none" xmlns="http://www.w3.org/2000/svg">
<g clip-path="url(#clip0_274_11182)">
<path d="M10.875 6C10.875 7.29293 10.3614 8.53291 9.44715 9.44715C8.53291 10.3614 7.29293 10.875 6 10.875C4.70707 10.875 3.46709 10.3614 2.55285 9.44715C1.63861 8.53291 1.125 7.29293 1.125 6C1.125 4.70707 1.63861 3.46709 2.55285 2.55285C3.46709 1.63861 4.70707 1.125 6 1.125C7.29293 1.125 8.53291 1.63861 9.44715 2.55285C10.3614 3.46709 10.875 4.70707 10.875 6ZM0 6C0 7.5913 0.632141 9.11742 1.75736 10.2426C2.88258 11.3679 4.4087 12 6 12C7.5913 12 9.11742 11.3679 10.2426 10.2426C11.3679 9.11742 12 7.5913 12 6C12 4.4087 11.3679 2.88258 10.2426 1.75736C9.11742 0.632141 7.5913 0 6 0C4.4087 0 2.88258 0.632141 1.75736 1.75736C0.632141 2.88258 0 4.4087 0 6ZM5.4375 2.8125V6C5.4375 6.31172 5.68828 6.5625 6 6.5625H8.4375C8.74922 6.5625 9 6.31172 9 6C9 5.68828 8.74922 5.4375 8.4375 5.4375H6.5625V2.8125C6.5625 2.50078 6.31172 2.25 6 2.25C5.68828 2.25 5.4375 2.50078 5.4375 2.8125Z" fill="black"/>
</g>
<defs>
<clipPath id="clip0_274_11182">
<rect width="12" height="12" fill="white"/>
</clipPath>
</defs>
</svg>
