<svg width="11" height="11" viewBox="0 0 11 11" fill="none" xmlns="http://www.w3.org/2000/svg">
<path d="M2.91356 3.17906C2.91356 2.74037 3.26948 2.38445 3.70817 2.38445C4.14686 2.38445 4.50278 2.74037 4.50278 3.17906V3.30984C4.50278 3.76508 4.4647 4.22033 4.3869 4.66895L2.61559 5.2169C2.00473 5.40562 1.58922 5.97012 1.58922 6.60912V7.1521H0.397304C0.177131 7.1521 0 7.32923 0 7.54941C0 7.76958 0.177131 7.94671 0.397304 7.94671H1.59418C1.64385 8.53935 2.14213 9.00619 2.74802 9.00619C3.15526 9.00619 3.5327 8.79264 3.74128 8.44334L4.00449 8.0063C4.4945 7.18852 4.85042 6.29624 5.05735 5.36589L5.0739 5.28808L6.90812 4.72027L6.51248 5.8261C6.46943 5.9486 6.48764 6.08269 6.56214 6.18864C6.63663 6.29459 6.75748 6.35749 6.8866 6.35749H9.13799C9.35817 6.35749 9.5353 6.18036 9.5353 5.96019C9.5353 5.74002 9.35817 5.56288 9.13799 5.56288H7.45111L7.92291 4.24019C7.97422 4.09783 7.93946 3.94056 7.83517 3.8313C7.73088 3.72204 7.57526 3.68231 7.43124 3.72701L5.22951 4.40905C5.27421 4.04485 5.29739 3.67735 5.29739 3.30984V3.17906C5.29739 2.30168 4.58555 1.58984 3.70817 1.58984C2.83079 1.58984 2.11896 2.30168 2.11896 3.17906V3.84123C2.11896 4.06141 2.29609 4.23854 2.51626 4.23854C2.73643 4.23854 2.91356 4.06141 2.91356 3.84123V3.17906ZM2.85066 5.97674L4.1899 5.56288C3.99622 6.27803 3.70321 6.96173 3.32246 7.59907L3.05924 8.0361C2.99302 8.14536 2.87549 8.21323 2.74802 8.21323C2.54771 8.21323 2.38382 8.051 2.38382 7.84904V6.61077C2.38382 6.32107 2.57254 6.06448 2.85066 5.9784V5.97674ZM4.94809 7.94671H10.1975C10.4176 7.94671 10.5948 7.76958 10.5948 7.54941C10.5948 7.32923 10.4176 7.1521 10.1975 7.1521H5.32222C5.20965 7.42194 5.08549 7.68681 4.94809 7.94671Z" fill="#6B6F76"/>
</svg>
