<svg width="20" height="20" viewBox="0 0 20 20" fill="none" xmlns="http://www.w3.org/2000/svg">
<path d="M7.17179 5.89445C7.17179 5.24308 7.43054 4.61839 7.89113 4.15779C8.35172 3.6972 8.97642 3.43845 9.62779 3.43845C10.2792 3.43845 10.9039 3.6972 11.3645 4.15779C11.825 4.61839 12.0838 5.24308 12.0838 5.89445C12.0838 6.54583 11.825 7.17052 11.3645 7.63111C10.9039 8.0917 10.2792 8.35046 9.62779 8.35046C8.97642 8.35046 8.35172 8.0917 7.89113 7.63111C7.43054 7.17052 7.17179 6.54583 7.17179 5.89445ZM13.5574 5.89445C13.5574 4.85226 13.1434 3.85274 12.4064 3.1158C11.6695 2.37886 10.67 1.96484 9.62779 1.96484C8.5856 1.96484 7.58608 2.37886 6.84914 3.1158C6.11219 3.85274 5.69818 4.85226 5.69818 5.89445C5.69818 6.93665 6.11219 7.93616 6.84914 8.67311C7.58608 9.41005 8.5856 9.82406 9.62779 9.82406C10.67 9.82406 11.6695 9.41005 12.4064 8.67311C13.1434 7.93616 13.5574 6.93665 13.5574 5.89445ZM4.22458 16.7009C4.22458 14.5304 5.98369 12.7713 8.15419 12.7713H11.1014C13.2719 12.7713 15.031 14.5304 15.031 16.7009V16.9465C15.031 17.3548 15.3595 17.6833 15.7678 17.6833C16.1761 17.6833 16.5046 17.3548 16.5046 16.9465V16.7009C16.5046 13.7168 14.0854 11.2977 11.1014 11.2977H8.15419C5.17014 11.2977 2.75098 13.7168 2.75098 16.7009V16.9465C2.75098 17.3548 3.07947 17.6833 3.48778 17.6833C3.89609 17.6833 4.22458 17.3548 4.22458 16.9465V16.7009Z" fill="#212B36"/>
</svg>
