<svg width="16" height="16" viewBox="0 0 16 16" fill="none" xmlns="http://www.w3.org/2000/svg">
<path d="M14.2448 7.85922C14.2448 4.33178 11.3867 1.4736 7.85922 1.4736C4.33178 1.4736 1.4736 4.33178 1.4736 7.85922C1.4736 11.3867 4.33178 14.2448 7.85922 14.2448C11.3867 14.2448 14.2448 11.3867 14.2448 7.85922ZM0 7.85922C0 3.51823 3.51823 0 7.85922 0C12.2002 0 15.7184 3.51823 15.7184 7.85922C15.7184 12.2002 12.2002 15.7184 7.85922 15.7184C3.51823 15.7184 0 12.2002 0 7.85922ZM9.41571 9.98059L4.98569 11.6844C4.39011 11.9147 3.80374 11.3283 4.03399 10.7327L5.73784 6.30272C5.83915 6.04177 6.04177 5.83915 6.30272 5.73784L10.7327 4.03399C11.3283 3.80374 11.9147 4.39011 11.6844 4.98569L9.98059 9.41571C9.87928 9.67666 9.67666 9.87928 9.41571 9.98059ZM8.84162 7.85922C8.84162 7.31583 8.40261 6.87682 7.85922 6.87682C7.31583 6.87682 6.87682 7.31583 6.87682 7.85922C6.87682 8.40261 7.31583 8.84162 7.85922 8.84162C8.40261 8.84162 8.84162 8.40261 8.84162 7.85922Z" fill="#212B36"/>
</svg>
