<svg width="11" height="11" viewBox="0 0 11 11" fill="none" xmlns="http://www.w3.org/2000/svg">
<path d="M5.23082 0.99326H2.91321C2.73112 0.99326 2.58213 1.14225 2.58213 1.32435V9.27043C2.58213 9.45253 2.73112 9.60152 2.91321 9.60152H8.2106C8.3927 9.60152 8.54169 9.45253 8.54169 9.27043V4.30413H6.72071C5.89713 4.30413 5.23082 3.63782 5.23082 2.81424V0.99326ZM8.1299 3.31087L6.22408 1.40505V2.81424C6.22408 3.08945 6.4455 3.31087 6.72071 3.31087H8.1299ZM1.58887 1.32435C1.58887 0.593887 2.18275 0 2.91321 0H5.67572C6.0275 0 6.36479 0.138643 6.61311 0.386958L9.14799 2.92391C9.39631 3.17223 9.53495 3.50952 9.53495 3.8613V9.27043C9.53495 10.0009 8.94106 10.5948 8.2106 10.5948H2.91321C2.18275 10.5948 1.58887 10.0009 1.58887 9.27043V1.32435Z" fill="#6B6F76"/>
</svg>
