<svg width="12" height="12" viewBox="0 0 12 12" fill="none" xmlns="http://www.w3.org/2000/svg">
<g clip-path="url(#clip0_274_11184)">
<path d="M7.10625 9.67969C6.60234 10.7039 6.13594 10.875 6 10.875C5.86406 10.875 5.39766 10.7039 4.89375 9.67969C4.49531 8.87109 4.20937 7.76719 4.14141 6.5625H7.85859C7.78828 7.76953 7.50234 8.87344 7.10625 9.67969ZM7.85859 5.4375H4.14141C4.21172 4.23047 4.49766 3.12656 4.89375 2.32031C5.39766 1.29609 5.86406 1.125 6 1.125C6.13594 1.125 6.60234 1.29609 7.10625 2.32031C7.50469 3.12891 7.79062 4.23281 7.85859 5.4375ZM8.98594 6.5625H10.8422C10.6406 8.31094 9.51328 9.78047 7.96406 10.4625C8.52656 9.45937 8.90859 8.0625 8.98594 6.5625ZM10.8422 5.4375H8.98594C8.90859 3.9375 8.52656 2.54062 7.96406 1.5375C9.51328 2.22187 10.6406 3.68906 10.8422 5.4375ZM3.01406 5.4375H1.15781C1.35938 3.68906 2.48672 2.21953 4.03594 1.5375C3.47344 2.54062 3.09141 3.9375 3.01406 5.4375ZM1.15781 6.5625H3.01406C3.09141 8.0625 3.47344 9.45937 4.03594 10.4625C2.48672 9.77812 1.35938 8.31094 1.15781 6.5625ZM6 12C7.5913 12 9.11742 11.3679 10.2426 10.2426C11.3679 9.11742 12 7.5913 12 6C12 4.4087 11.3679 2.88258 10.2426 1.75736C9.11742 0.632141 7.5913 0 6 0C4.4087 0 2.88258 0.632141 1.75736 1.75736C0.632141 2.88258 0 4.4087 0 6C0 7.5913 0.632141 9.11742 1.75736 10.2426C2.88258 11.3679 4.4087 12 6 12Z" fill="black"/>
</g>
<defs>
<clipPath id="clip0_274_11184">
<rect width="12" height="12" fill="white"/>
</clipPath>
</defs>
</svg>
