<svg width="12" height="12" viewBox="0 0 12 12" fill="none" xmlns="http://www.w3.org/2000/svg">
<g clip-path="url(#clip0_462_137)">
<path d="M8.88047 1.875C8.24062 1.875 7.63828 2.18203 7.26328 2.7L6.45703 3.81563C6.35156 3.96094 6.18281 4.04766 6.00234 4.04766C5.82188 4.04766 5.65312 3.96094 5.54766 3.81563L4.74141 2.7C4.36641 2.18203 3.76406 1.875 3.12422 1.875C2.02266 1.875 1.12969 2.76797 1.12969 3.86953C1.12969 5.03906 1.87969 6.17578 2.72578 7.20469C3.68906 8.37656 4.86797 9.40781 5.67656 10.0242C5.75156 10.0805 5.86172 10.1227 6.00469 10.1227C6.14766 10.1227 6.25781 10.0805 6.33281 10.0242C7.14141 9.40781 8.32031 8.37422 9.28359 7.20469C10.132 6.17578 10.8797 5.03906 10.8797 3.86953C10.8797 2.76797 9.98672 1.875 8.88516 1.875H8.88047ZM6.35156 2.04141C6.9375 1.23047 7.87969 0.75 8.88047 0.75C10.6031 0.75 12 2.14688 12 3.86953C12 5.47734 10.9945 6.89062 10.1461 7.91953C9.1125 9.17578 7.86563 10.2656 7.01016 10.9172C6.72188 11.1375 6.36563 11.2477 6 11.2477C5.63437 11.2477 5.27812 11.1375 4.98984 10.9172C4.13437 10.2656 2.8875 9.17578 1.85391 7.92188C1.00547 6.89297 0 5.47734 0 3.86953C0 2.14688 1.39688 0.75 3.11953 0.75C4.12031 0.75 5.0625 1.23047 5.64844 2.04141L6 2.52656L6.35156 2.04141Z" fill="black"/>
</g>
<defs>
<clipPath id="clip0_462_137">
<rect width="12" height="12" fill="white"/>
</clipPath>
</defs>
</svg>
