<svg width="20" height="20" viewBox="0 0 20 20" fill="none" xmlns="http://www.w3.org/2000/svg">
<path d="M9.08726 5.46467L8.48554 5.21293C7.22991 4.69103 5.88217 4.42087 4.51909 4.42087H3.43845V15.2273H4.51909C6.07865 15.2273 7.62594 15.5036 9.08726 16.0378V5.46467ZM10.5609 16.0378C12.0222 15.5036 13.5695 15.2273 15.129 15.2273H16.2097V4.42087H15.129C13.766 4.42087 12.4182 4.69103 11.1626 5.21293L10.5609 5.46467V16.0378ZM9.05349 3.85292L9.82406 4.17527L10.5946 3.85292C12.0314 3.25427 13.5725 2.94727 15.129 2.94727H16.2097C17.0232 2.94727 17.6833 3.60732 17.6833 4.42087V15.2273C17.6833 16.0408 17.0232 16.7009 16.2097 16.7009H15.129C13.5725 16.7009 12.0314 17.0079 10.5946 17.6066L10.2017 17.7693C9.95914 17.8706 9.68898 17.8706 9.44645 17.7693L9.05349 17.6066C7.61673 17.0079 6.07558 16.7009 4.51909 16.7009H3.43845C2.6249 16.7009 1.96484 16.0408 1.96484 15.2273V4.42087C1.96484 3.60732 2.6249 2.94727 3.43845 2.94727H4.51909C6.07558 2.94727 7.61673 3.25427 9.05349 3.85292Z" fill="black"/>
</svg>
