<svg width="14" height="12" viewBox="0 0 14 12" fill="none" xmlns="http://www.w3.org/2000/svg">
<path d="M8.99529 0.375C9.59998 0.375 10.1601 0.698438 10.4601 1.22344L12.7148 5.16094C13.0125 5.68125 13.0125 6.31875 12.7148 6.83672L10.4601 10.7789C10.1601 11.3039 9.59998 11.6273 8.99529 11.6273H4.50466C3.89998 11.6273 3.33982 11.3039 3.03982 10.7789L0.785132 6.83906C0.487476 6.31875 0.487476 5.68125 0.785132 5.16328L3.03982 1.22578C3.33982 0.698437 3.89998 0.375 4.50466 0.375H8.99529ZM4.50466 1.5C4.3031 1.5 4.1156 1.60781 4.01716 1.78359L1.76248 5.72109C1.66404 5.89453 1.66404 6.10781 1.76248 6.27891L4.01716 10.2188C4.11794 10.3945 4.3031 10.5023 4.50466 10.5023H8.99529C9.19685 10.5023 9.38435 10.3945 9.48279 10.2188L11.7398 6.28125C11.8383 6.10781 11.8383 5.89453 11.7398 5.72344L9.48513 1.78594C9.38435 1.60781 9.19685 1.5 8.99529 1.5H4.50466ZM6.74998 9C6.55106 9 6.3603 8.92098 6.21965 8.78033C6.07899 8.63968 5.99998 8.44891 5.99998 8.25C5.99998 8.05109 6.07899 7.86032 6.21965 7.71967C6.3603 7.57902 6.55106 7.5 6.74998 7.5C6.94889 7.5 7.13965 7.57902 7.28031 7.71967C7.42096 7.86032 7.49998 8.05109 7.49998 8.25C7.49998 8.44891 7.42096 8.63968 7.28031 8.78033C7.13965 8.92098 6.94889 9 6.74998 9ZM6.74998 3C7.17654 3 7.51638 3.36328 7.48591 3.78984L7.31248 6.22734C7.29138 6.52266 7.04529 6.75 6.75232 6.75C6.45935 6.75 6.21326 6.52266 6.19216 6.22734L6.01873 3.78984C5.98357 3.36328 6.32341 3 6.74998 3Z" fill="black"/>
</svg>
