<svg width="24" height="24" viewBox="0 0 24 24" fill="none" xmlns="http://www.w3.org/2000/svg">
<g clip-path="url(#clip0_265_7041)">
<path d="M18.5 12C18.5 8.40938 15.5906 5.5 12 5.5V18.5C15.5906 18.5 18.5 15.5906 18.5 12ZM4 12C4 9.87827 4.84286 7.84344 6.34315 6.34315C7.84344 4.84286 9.87827 4 12 4C14.1217 4 16.1566 4.84286 17.6569 6.34315C19.1571 7.84344 20 9.87827 20 12C20 14.1217 19.1571 16.1566 17.6569 17.6569C16.1566 19.1571 14.1217 20 12 20C9.87827 20 7.84344 19.1571 6.34315 17.6569C4.84286 16.1566 4 14.1217 4 12Z" fill="#863805"/>
<circle cx="11.9844" cy="11.9844" r="6.33438" stroke="white" stroke-width="0.8"/>
</g>
<defs>
<clipPath id="clip0_265_7041">
<rect width="16" height="16" fill="white" transform="translate(4 4)"/>
</clipPath>
</defs>
</svg>
