<svg width="9" height="12" viewBox="0 0 9 12" fill="none" xmlns="http://www.w3.org/2000/svg">
<g clip-path="url(#clip0_378_1296)">
<path d="M6.94922 6.82266C7.52344 6.21563 7.875 5.4 7.875 4.5C7.875 2.63672 6.36328 1.125 4.5 1.125C2.63672 1.125 1.125 2.63672 1.125 4.5C1.125 5.4 1.47656 6.21563 2.05078 6.82266C2.55 7.34766 3.10313 8.08828 3.3 9H5.7C5.89687 8.08594 6.45 7.34766 6.94922 6.82266ZM7.76484 7.59609C7.21172 8.17969 6.75 8.89219 6.75 9.69609V10.125C6.75 11.1609 5.91094 12 4.875 12H4.125C3.08906 12 2.25 11.1609 2.25 10.125V9.69609C2.25 8.89219 1.78828 8.17969 1.23516 7.59609C0.46875 6.78984 0 5.7 0 4.5C0 2.01562 2.01562 0 4.5 0C6.98438 0 9 2.01562 9 4.5C9 5.7 8.53125 6.78984 7.76484 7.59609ZM3.375 4.3125C3.375 4.62422 3.12422 4.875 2.8125 4.875C2.50078 4.875 2.25 4.62422 2.25 4.3125C2.25 3.17344 3.17344 2.25 4.3125 2.25C4.62422 2.25 4.875 2.50078 4.875 2.8125C4.875 3.12422 4.62422 3.375 4.3125 3.375C3.79453 3.375 3.375 3.79453 3.375 4.3125Z" fill="black"/>
</g>
<defs>
<clipPath id="clip0_378_1296">
<rect width="9" height="12" fill="white"/>
</clipPath>
</defs>
</svg>
