<svg width="14" height="12" viewBox="0 0 14 12" fill="none" xmlns="http://www.w3.org/2000/svg">
<g clip-path="url(#clip0_378_1290)">
<path d="M10.0195 2.0625C9.51797 2.0625 9.03047 2.22422 8.62969 2.51719C8.3625 2.24297 8.05781 1.99922 7.72969 1.79766C8.3625 1.24453 9.17578 0.9375 10.0195 0.9375C11.9414 0.9375 13.5 2.49609 13.5 4.41797C13.5 5.34141 13.1344 6.225 12.4805 6.87891L10.6266 8.73281C9.975 9.38438 9.08906 9.75234 8.16562 9.75234C6.24375 9.75234 4.68516 8.19375 4.68516 6.27188C4.68516 5.85234 4.76016 5.43984 4.90547 5.05547C5.01328 4.76484 5.33906 4.61719 5.62969 4.725C5.92031 4.83281 6.07031 5.15625 5.9625 5.44687C5.86406 5.70703 5.8125 5.98594 5.8125 6.27188C5.8125 7.57266 6.86719 8.62734 8.16797 8.62734C8.79141 8.62734 9.39141 8.37891 9.83203 7.93828L11.6859 6.08438C12.1266 5.63906 12.375 5.04141 12.375 4.41797C12.375 3.11719 11.3203 2.0625 10.0195 2.0625ZM5.33203 3.375C4.70859 3.375 4.10859 3.62344 3.66797 4.06406L1.81406 5.91797C1.37344 6.35859 1.125 6.95859 1.125 7.58203C1.125 8.88281 2.17969 9.9375 3.48047 9.9375C3.98203 9.9375 4.46953 9.77578 4.87031 9.48281C5.1375 9.75938 5.44219 10.0008 5.77031 10.2023C5.1375 10.7555 4.32422 11.0625 3.48047 11.0625C1.55859 11.0625 0 9.50391 0 7.58203C0 6.65859 0.365625 5.775 1.01953 5.12109L2.87344 3.26719C3.525 2.61562 4.41094 2.24766 5.33438 2.24766C7.25625 2.24766 8.81484 3.80625 8.81484 5.72812C8.81484 6.14766 8.73984 6.56016 8.59453 6.94453C8.48672 7.23516 8.16094 7.38281 7.87031 7.275C7.57969 7.16719 7.42969 6.84375 7.5375 6.55313C7.63594 6.29297 7.6875 6.01406 7.6875 5.73047C7.6875 4.42969 6.63281 3.375 5.33203 3.375Z" fill="black"/>
</g>
<defs>
<clipPath id="clip0_378_1290">
<rect width="13.5" height="12" fill="white"/>
</clipPath>
</defs>
</svg>
