<svg width="20" height="20" viewBox="0 0 20 20" fill="none" xmlns="http://www.w3.org/2000/svg">
<path d="M15.8038 6.37181C15.962 6.62287 15.9784 6.93123 15.8665 7.19321C15.7601 7.44427 15.5636 7.59708 15.318 7.62983C15.2634 7.63802 15.2116 7.64075 15.1597 7.64075C14.8405 7.64075 14.5539 7.50157 14.3493 7.28053C14.1009 7.00764 13.7489 6.8521 13.3778 6.8521C13.0066 6.8521 12.6546 7.01037 12.409 7.28326C12.2098 7.5043 11.926 7.64348 11.6013 7.64348C11.2793 7.64348 10.9927 7.5043 10.7935 7.28326C10.5452 7.00764 10.1932 6.8521 9.82203 6.8521C9.4509 6.8521 9.09887 7.00764 8.85054 7.28326C8.65133 7.5043 8.36752 7.64348 8.04279 7.64348C7.72078 7.64348 7.43424 7.5043 7.23503 7.28326C6.9867 7.00764 6.63468 6.8521 6.26355 6.8521C5.89242 6.8521 5.54039 7.00764 5.29206 7.28326C5.09285 7.5043 4.80905 7.64348 4.48431 7.64348C4.43519 7.64348 4.38061 7.64075 4.32603 7.63256C4.08316 7.59981 3.88941 7.44699 3.78298 7.19594C3.6711 6.93396 3.68747 6.6256 3.84575 6.37454L5.25113 4.14776H14.3984L15.8038 6.37181ZM15.1597 8.95062C15.2716 8.95062 15.3808 8.94243 15.4872 8.92878C17.0017 8.72685 17.7194 6.95034 16.909 5.67048L15.3453 3.19538C15.2061 2.97434 14.9578 2.83789 14.6931 2.83789H4.95641C4.6917 2.83789 4.44337 2.97434 4.3042 3.19538L2.73781 5.67048C1.93006 6.94761 2.64503 8.72412 4.15411 8.92878C4.26327 8.94243 4.37515 8.95062 4.48431 8.95062C5.01917 8.95062 5.50764 8.77597 5.9006 8.4867C6.03159 8.39119 6.15166 8.27931 6.26082 8.16197C6.36997 8.28204 6.49004 8.39119 6.62103 8.4867C7.01672 8.77597 7.50519 8.95062 8.04006 8.95062C8.57492 8.95062 9.06339 8.77597 9.45908 8.4867C9.59007 8.39119 9.71014 8.27931 9.8193 8.15924C9.92845 8.27931 10.0485 8.38846 10.1795 8.48397C10.5752 8.77324 11.0637 8.94789 11.5985 8.94789C12.1389 8.94789 12.6301 8.77051 13.0257 8.47579C13.154 8.38028 13.2714 8.27385 13.3778 8.15651C13.4842 8.27385 13.6043 8.38301 13.7325 8.47852C14.1282 8.77051 14.6194 8.94789 15.157 8.94789L15.1597 8.95062ZM5.0219 12.007V9.7802C4.84725 9.81022 4.66987 9.82386 4.48704 9.82386C4.33695 9.82386 4.18686 9.81295 4.04223 9.79384H4.0395C3.92761 9.77747 3.81846 9.75837 3.71203 9.73108V12.007V13.3168V15.0633C3.71203 16.0266 4.49522 16.8098 5.45852 16.8098H14.191C15.1543 16.8098 15.9375 16.0266 15.9375 15.0633V13.3168V12.007V9.73108C15.8283 9.75837 15.7192 9.7802 15.6018 9.79384C15.6018 9.79384 15.6018 9.79384 15.5991 9.79384C15.4545 9.81295 15.3071 9.82386 15.157 9.82386C14.9769 9.82386 14.7995 9.81022 14.6276 9.7802V12.007H5.0219ZM14.6276 13.3168V15.0633C14.6276 15.3035 14.4311 15.5 14.191 15.5H5.45852C5.21838 15.5 5.0219 15.3035 5.0219 15.0633V13.3168H14.6276Z" fill="#212B36"/>
</svg>
