<svg width="20" height="20" viewBox="0 0 20 20" fill="none" xmlns="http://www.w3.org/2000/svg">
<path d="M8.21845 16.7285L11.0398 14.7361H14.7361C16.3632 14.7361 17.6833 13.416 17.6833 11.7889V4.91205C17.6833 3.28495 16.3632 1.96484 14.7361 1.96484H4.91205C3.28495 1.96484 1.96484 3.28495 1.96484 4.91205V11.7889C1.96484 13.416 3.28495 14.7361 4.91205 14.7361H5.89445V16.9465C5.89445 17.2228 6.04795 17.4745 6.29355 17.6004C6.53915 17.7263 6.83388 17.7078 7.05799 17.5482L8.21845 16.7285ZM11.0398 13.2625C10.7359 13.2625 10.4381 13.3576 10.1894 13.5326C9.31137 14.1528 8.36888 14.8159 7.36806 15.5251V13.9993C7.36806 13.9133 7.35271 13.8274 7.32508 13.7506C7.22377 13.4651 6.95054 13.2625 6.63125 13.2625H4.91205C4.0985 13.2625 3.43845 12.6024 3.43845 11.7889V4.91205C3.43845 4.0985 4.0985 3.43845 4.91205 3.43845H14.7361C15.5496 3.43845 16.2097 4.0985 16.2097 4.91205V11.7889C16.2097 12.6024 15.5496 13.2625 14.7361 13.2625H11.0398ZM6.38565 9.33286C6.6462 9.33286 6.89608 9.22936 7.08032 9.04512C7.26455 8.86089 7.36806 8.61101 7.36806 8.35046C7.36806 8.08991 7.26455 7.84003 7.08032 7.6558C6.89608 7.47156 6.6462 7.36806 6.38565 7.36806C6.1251 7.36806 5.87523 7.47156 5.69099 7.6558C5.50675 7.84003 5.40325 8.08991 5.40325 8.35046C5.40325 8.61101 5.50675 8.86089 5.69099 9.04512C5.87523 9.22936 6.1251 9.33286 6.38565 9.33286ZM10.8065 8.35046C10.8065 8.08991 10.703 7.84003 10.5187 7.6558C10.3345 7.47156 10.0846 7.36806 9.82406 7.36806C9.56351 7.36806 9.31364 7.47156 9.1294 7.6558C8.94516 7.84003 8.84166 8.08991 8.84166 8.35046C8.84166 8.61101 8.94516 8.86089 9.1294 9.04512C9.31364 9.22936 9.56351 9.33286 9.82406 9.33286C10.0846 9.33286 10.3345 9.22936 10.5187 9.04512C10.703 8.86089 10.8065 8.61101 10.8065 8.35046ZM13.2625 9.33286C13.523 9.33286 13.7729 9.22936 13.9571 9.04512C14.1414 8.86089 14.2449 8.61101 14.2449 8.35046C14.2449 8.08991 14.1414 7.84003 13.9571 7.6558C13.7729 7.47156 13.523 7.36806 13.2625 7.36806C13.0019 7.36806 12.752 7.47156 12.5678 7.6558C12.3836 7.84003 12.2801 8.08991 12.2801 8.35046C12.2801 8.61101 12.3836 8.86089 12.5678 9.04512C12.752 9.22936 13.0019 9.33286 13.2625 9.33286Z" fill="black"/>
</svg>
