<svg width="20" height="20" viewBox="0 0 20 20" fill="none" xmlns="http://www.w3.org/2000/svg">
<path d="M9.8234 1.96484C9.28 1.96484 8.84099 2.40385 8.84099 2.94725V3.53669C6.59989 3.99105 4.91138 5.97427 4.91138 8.35046V9.13024C4.91138 10.524 4.43553 11.8779 3.56672 12.9647L3.10929 13.5388C2.93123 13.7598 2.89746 14.0637 3.02026 14.3186C3.14306 14.5734 3.40094 14.7361 3.68338 14.7361H15.9634C16.2459 14.7361 16.5037 14.5734 16.6265 14.3186C16.7493 14.0637 16.7156 13.7598 16.5375 13.5388L16.0801 12.9677C15.2113 11.8779 14.7354 10.524 14.7354 9.13024V8.35046C14.7354 5.97427 13.0469 3.99105 10.8058 3.53669V2.94725C10.8058 2.40385 10.3668 1.96484 9.8234 1.96484ZM9.8234 4.91205C11.7237 4.91205 13.2618 6.45012 13.2618 8.35046V9.13024C13.2618 10.6008 13.6885 12.0345 14.4806 13.2625H5.16619C5.95826 12.0345 6.38499 10.6008 6.38499 9.13024V8.35046C6.38499 6.45012 7.92306 4.91205 9.8234 4.91205ZM11.7882 15.7185H9.8234H7.85859C7.85859 16.2404 8.06428 16.7408 8.43268 17.1092C8.80108 17.4776 9.30149 17.6833 9.8234 17.6833C10.3453 17.6833 10.8457 17.4776 11.2141 17.1092C11.5825 16.7408 11.7882 16.2404 11.7882 15.7185Z" fill="#212B36"/>
</svg>
