<svg width="20" height="20" viewBox="0 0 20 20" fill="none" xmlns="http://www.w3.org/2000/svg">
<path d="M9.08726 2.70165C9.08726 2.29333 9.41575 1.96484 9.82406 1.96484C14.1651 1.96484 17.6833 5.48307 17.6833 9.82406C17.6833 14.1651 14.1651 17.6833 9.82406 17.6833C5.48307 17.6833 1.96484 14.1651 1.96484 9.82406C1.96484 8.66053 2.21658 7.5584 2.67095 6.56678C2.85515 6.16154 3.07312 5.77472 3.32179 5.41246L3.32486 5.40632C3.60423 4.99801 3.91737 4.61733 4.26735 4.26735C4.55593 3.97877 5.02257 3.97877 5.30808 4.26735C5.59359 4.55593 5.59666 5.02257 5.30808 5.30808C5.02564 5.59052 4.76776 5.90059 4.54058 6.23215L4.53751 6.23829C3.88667 7.19614 3.48757 8.34125 3.44152 9.57539C3.43845 9.65828 3.43538 9.74117 3.43538 9.82406C3.43538 13.3515 6.29355 16.2097 9.82099 16.2097C13.3484 16.2097 16.2066 13.3515 16.2066 9.82406C16.2066 6.54529 13.7383 3.84676 10.5578 3.48143V5.15765C10.5578 5.56596 10.2293 5.89445 9.82099 5.89445C9.41268 5.89445 9.08419 5.56596 9.08419 5.15765V2.70165H9.08726ZM6.84616 6.84616C7.13474 6.55757 7.60138 6.55757 7.88689 6.84616L10.3429 9.30216C10.6315 9.59074 10.6315 10.0574 10.3429 10.3429C10.0543 10.6284 9.58767 10.6315 9.30216 10.3429L6.84616 7.88689C6.55757 7.59831 6.55757 7.13167 6.84616 6.84616Z" fill="#212B36"/>
</svg>
