<svg width="20" height="20" viewBox="0 0 20 20" fill="none" xmlns="http://www.w3.org/2000/svg">
<path d="M3.93751 14.7917H15.7185C15.9857 14.7917 16.2057 14.5716 16.2057 14.3044V6.94034C16.2057 6.67312 15.9857 6.45307 15.7185 6.45307H11.1366C10.6021 6.45307 10.0913 6.28016 9.66688 5.96579L8.488 5.08556C8.40154 5.02269 8.29937 4.99125 8.1972 4.99125H3.93751C3.67029 4.99125 3.45024 5.21131 3.45024 5.47852V14.3123C3.45024 14.5795 3.67029 14.7996 3.93751 14.7996V14.7917ZM15.7106 16.2614H3.93751C2.85294 16.2614 1.96484 15.3811 1.96484 14.3044V5.4628C1.96484 4.38609 2.85294 3.50586 3.93751 3.50586H8.18935C8.61374 3.50586 9.03028 3.64733 9.36823 3.89882L10.5471 4.77905C10.7122 4.9048 10.9244 4.97553 11.1366 4.97553H15.7185C16.803 4.97553 17.6833 5.85577 17.6833 6.94034V14.3044C17.6833 15.389 16.803 16.2692 15.7185 16.2692L15.7106 16.2614Z" fill="#212B36"/>
</svg>
