<svg width="12" height="14" viewBox="0 0 12 14" fill="none" xmlns="http://www.w3.org/2000/svg">
<path d="M10.0048 1.84285C9.29554 1.13328 8.14707 1.13328 7.4378 1.84285L2.20283 7.08281C1.01071 8.27271 1.01071 10.2049 2.20283 11.3949C3.39495 12.5848 5.32363 12.5848 6.51575 11.3949L10.6595 7.24656C10.916 6.99002 11.3306 6.99002 11.5843 7.24656C11.838 7.50309 11.8407 7.91792 11.5843 8.17173L7.44053 12.3228C5.73828 14.0257 2.9803 14.0257 1.27805 12.3228C-0.424198 10.6198 -0.426926 7.85788 1.27532 6.1549L6.51302 0.914945C7.73242 -0.304982 9.71292 -0.304982 10.9323 0.914945C12.1517 2.13487 12.1517 4.1135 10.9323 5.33343L5.91832 10.3496C5.05629 11.212 3.63774 11.1329 2.87664 10.1804C2.22738 9.3671 2.29013 8.19357 3.02668 7.4567L7.16773 3.31659C7.42416 3.06005 7.83881 3.06005 8.09251 3.31659C8.34621 3.57313 8.34894 3.98796 8.09251 4.24177L3.95419 8.38461C3.68957 8.64933 3.66502 9.06962 3.89963 9.36164C4.17242 9.70278 4.68255 9.7328 4.99081 9.42168L10.0048 4.40825C10.7141 3.69867 10.7141 2.5497 10.0048 1.84012V1.84285Z" fill="#6B6F76"/>
</svg>
