<svg width="20" height="20" viewBox="0 0 20 20" fill="none" xmlns="http://www.w3.org/2000/svg">
<path d="M15.7185 5.40329C15.9886 5.40329 16.2097 5.62433 16.2097 5.89449V6.87689H3.43845V5.89449C3.43845 5.62433 3.65949 5.40329 3.92965 5.40329H15.7185ZM16.2097 8.8417V13.7537C16.2097 14.0239 15.9886 14.2449 15.7185 14.2449H3.92965C3.65949 14.2449 3.43845 14.0239 3.43845 13.7537V8.8417H16.2097ZM3.92965 3.92969C2.84594 3.92969 1.96484 4.81078 1.96484 5.89449V13.7537C1.96484 14.8374 2.84594 15.7185 3.92965 15.7185H15.7185C16.8022 15.7185 17.6833 14.8374 17.6833 13.7537V5.89449C17.6833 4.81078 16.8022 3.92969 15.7185 3.92969H3.92965ZM4.42085 12.5257C4.42085 12.934 4.74934 13.2625 5.15765 13.2625H6.63125C7.03957 13.2625 7.36806 12.934 7.36806 12.5257C7.36806 12.1174 7.03957 11.7889 6.63125 11.7889H5.15765C4.74934 11.7889 4.42085 12.1174 4.42085 12.5257ZM8.84166 12.5257C8.84166 12.934 9.17015 13.2625 9.57846 13.2625H11.5433C11.9516 13.2625 12.2801 12.934 12.2801 12.5257C12.2801 12.1174 11.9516 11.7889 11.5433 11.7889H9.57846C9.17015 11.7889 8.84166 12.1174 8.84166 12.5257Z" fill="#212B36"/>
</svg>
