<svg width="20" height="20" viewBox="0 0 20 20" fill="none" xmlns="http://www.w3.org/2000/svg">
<path d="M6.42336 1.75182H2.33577C2.0146 1.75182 1.75182 2.0146 1.75182 2.33577V16.3504C1.75182 16.6715 2.0146 16.9343 2.33577 16.9343H5.25547V18.6861H2.33577C1.04745 18.6861 0 17.6387 0 16.3504V2.33577C0 1.04745 1.04745 0 2.33577 0H7.20803C7.82847 0 8.42336 0.244526 8.86131 0.682482L13.3321 5.15693C13.7701 5.59489 14.0146 6.18978 14.0146 6.81022V12.2664H12.2628V7.59489H9.0511C7.59854 7.59489 6.42336 6.41971 6.42336 4.96715V1.75547V1.75182ZM11.5365 5.83942L8.17518 2.4781V4.9635C8.17518 5.44891 8.56569 5.83942 9.0511 5.83942H11.5365ZM7.59124 13.8686H8.75912C9.96715 13.8686 10.9489 14.8504 10.9489 16.0584C10.9489 17.2664 9.96715 18.2482 8.75912 18.2482H8.32117V19.2701C8.32117 19.6715 7.9927 20 7.59124 20C7.18978 20 6.86131 19.6715 6.86131 19.2701V14.5985C6.86131 14.1971 7.18978 13.8686 7.59124 13.8686ZM8.75912 16.7883C9.16058 16.7883 9.48905 16.4599 9.48905 16.0584C9.48905 15.6569 9.16058 15.3285 8.75912 15.3285H8.32117V16.7883H8.75912ZM12.2628 13.8686H13.4307C14.4781 13.8686 15.3285 14.719 15.3285 15.7664V18.1022C15.3285 19.1496 14.4781 20 13.4307 20H12.2628C11.8613 20 11.5328 19.6715 11.5328 19.2701V14.5985C11.5328 14.1971 11.8613 13.8686 12.2628 13.8686ZM13.4307 18.5401C13.6715 18.5401 13.8686 18.3431 13.8686 18.1022V15.7664C13.8686 15.5255 13.6715 15.3285 13.4307 15.3285H12.9927V18.5401H13.4307ZM16.2044 14.5985C16.2044 14.1971 16.5328 13.8686 16.9343 13.8686H18.6861C19.0876 13.8686 19.4161 14.1971 19.4161 14.5985C19.4161 15 19.0876 15.3285 18.6861 15.3285H17.6642V16.2044H18.6861C19.0876 16.2044 19.4161 16.5328 19.4161 16.9343C19.4161 17.3358 19.0876 17.6642 18.6861 17.6642H17.6642V19.2701C17.6642 19.6715 17.3358 20 16.9343 20C16.5328 20 16.2044 19.6715 16.2044 19.2701V14.5985Z" fill="#212B36"/>
</svg>
