<svg width="12" height="12" viewBox="0 0 12 12" fill="none" xmlns="http://www.w3.org/2000/svg">
<g clip-path="url(#clip0_378_1288)">
<path d="M8.63671 0.428906C9.14999 -0.084375 9.97968 -0.084375 10.493 0.428906L11.5734 1.50938C12.0867 2.02266 12.0867 2.85234 11.5734 3.36563L9.90936 5.02969L9.66561 5.27344L8.71171 8.76797C8.59921 9.18516 8.28749 9.51797 7.87968 9.66094L1.68749 11.8359C1.25389 11.9883 0.771082 11.8781 0.447644 11.5547C0.124207 11.2312 0.011707 10.7461 0.164051 10.3125L2.33905 4.12266C2.48202 3.71484 2.81483 3.40547 3.23202 3.29062L6.72655 2.33672L6.9703 2.09297L8.63436 0.428906H8.63671ZM6.95858 3.44063L3.52968 4.37578C3.47108 4.39219 3.42186 4.43672 3.40311 4.49531L1.53749 9.80156L3.8203 7.51641C3.77577 7.39453 3.74999 7.26328 3.74999 7.125C3.74999 6.50391 4.25389 6 4.87499 6C5.49608 6 5.99999 6.50391 5.99999 7.125C5.99999 7.74609 5.49608 8.25 4.87499 8.25C4.73671 8.25 4.60546 8.22422 4.48358 8.17969L2.19843 10.4648L7.50468 8.60156C7.56327 8.58047 7.6078 8.53359 7.62421 8.475L8.55936 5.04375L6.95858 3.44297V3.44063Z" fill="black"/>
</g>
<defs>
<clipPath id="clip0_378_1288">
<rect width="12" height="12" fill="white"/>
</clipPath>
</defs>
</svg>
