<svg width="20" height="20" viewBox="0 0 20 20" fill="none" xmlns="http://www.w3.org/2000/svg">
<path d="M5.71661 3.05704L1.98041 17.0655C1.93436 17.2343 1.98348 17.4155 2.10628 17.5383C2.22908 17.6611 2.41021 17.7102 2.57906 17.6641L16.5906 13.931C17.2291 13.7622 17.705 13.1727 17.6559 12.4728C17.269 6.86078 12.7868 2.37857 7.17486 1.99175C6.4749 1.94263 5.88853 2.42155 5.71661 3.05704ZM6.40429 6.20073C10.0791 6.65202 12.9956 9.56852 13.4469 13.2433L3.8439 15.8037L6.40429 6.20073ZM6.78804 4.76396L7.13495 3.46535C11.961 3.82761 15.82 7.68661 16.1823 12.5157L14.8836 12.8626C14.2789 8.68129 10.9694 5.37182 6.78804 4.76703V4.76396ZM7.85947 12.7705C7.85947 12.51 7.75597 12.2601 7.57173 12.0759C7.3875 11.8916 7.13762 11.7881 6.87707 11.7881C6.61652 11.7881 6.36664 11.8916 6.18241 12.0759C5.99817 12.2601 5.89467 12.51 5.89467 12.7705C5.89467 13.0311 5.99817 13.281 6.18241 13.4652C6.36664 13.6494 6.61652 13.7529 6.87707 13.7529C7.13762 13.7529 7.3875 13.6494 7.57173 13.4652C7.75597 13.281 7.85947 13.0311 7.85947 12.7705ZM10.8067 12.7705C11.0672 12.7705 11.3171 12.667 11.5013 12.4828C11.6856 12.2986 11.7891 12.0487 11.7891 11.7881C11.7891 11.5276 11.6856 11.2777 11.5013 11.0935C11.3171 10.9092 11.0672 10.8057 10.8067 10.8057C10.5461 10.8057 10.2963 10.9092 10.112 11.0935C9.92778 11.2777 9.82428 11.5276 9.82428 11.7881C9.82428 12.0487 9.92778 12.2986 10.112 12.4828C10.2963 12.667 10.5461 12.7705 10.8067 12.7705ZM8.84187 8.84093C8.84187 8.58038 8.73837 8.33051 8.55413 8.14627C8.3699 7.96203 8.12002 7.85853 7.85947 7.85853C7.59892 7.85853 7.34904 7.96203 7.16481 8.14627C6.98057 8.33051 6.87707 8.58038 6.87707 8.84093C6.87707 9.10148 6.98057 9.35136 7.16481 9.5356C7.34904 9.71983 7.59892 9.82333 7.85947 9.82333C8.12002 9.82333 8.3699 9.71983 8.55413 9.5356C8.73837 9.35136 8.84187 9.10148 8.84187 8.84093Z" fill="#212B36"/>
</svg>
