<svg width="13" height="13" viewBox="0 0 13 13" fill="none" xmlns="http://www.w3.org/2000/svg">
<path d="M5.77778 0C5.85226 0 5.91771 0.0451389 5.94479 0.112847L6.27882 0.943403L7.10938 1.27743C7.17708 1.30451 7.22222 1.37222 7.22222 1.44444C7.22222 1.51667 7.17708 1.58438 7.10938 1.61146L6.27882 1.94549L5.94479 2.77604C5.91771 2.84375 5.85 2.88889 5.77778 2.88889C5.70556 2.88889 5.63785 2.84375 5.61076 2.77604L5.27674 1.94549L4.44618 1.61146C4.37847 1.58438 4.33333 1.51667 4.33333 1.44444C4.33333 1.37222 4.37847 1.30451 4.44618 1.27743L5.27674 0.943403L5.61076 0.112847C5.63785 0.0451389 5.70556 0 5.77778 0ZM10.3819 1.80556C10.3526 1.80556 10.3233 1.81684 10.303 1.83941L7.89705 4.24306L8.75695 5.10295L11.1606 2.69705C11.1809 2.67674 11.1944 2.6474 11.1944 2.61806C11.1944 2.58872 11.1832 2.55937 11.1606 2.53906L10.4609 1.83941C10.4406 1.8191 10.4113 1.80556 10.3819 1.80556ZM1.83941 10.303C1.8191 10.3233 1.80556 10.3526 1.80556 10.3819C1.80556 10.4113 1.81684 10.4406 1.83941 10.4609L2.53906 11.1606C2.55938 11.1809 2.58872 11.1944 2.61806 11.1944C2.6474 11.1944 2.67674 11.1832 2.69705 11.1606L7.99184 5.86806L7.13194 5.00816L1.83941 10.303ZM9.53785 1.07205C9.76129 0.848611 10.066 0.722222 10.3819 0.722222C10.6979 0.722222 11.0026 0.848611 11.2283 1.07205L11.928 1.7717C12.1514 1.9974 12.2778 2.30208 12.2778 2.61806C12.2778 2.93403 12.1514 3.23872 11.928 3.46441L3.46441 11.928C3.23872 12.1514 2.93403 12.2778 2.61806 12.2778C2.30208 12.2778 1.9974 12.1514 1.7717 11.928L1.07205 11.2283C0.848611 11.0026 0.722222 10.6979 0.722222 10.3819C0.722222 10.066 0.848611 9.76128 1.07205 9.53559L9.53559 1.07205H9.53785ZM2.49844 1.66337L2.98368 2.7941L4.11441 3.27934C4.24757 3.33576 4.33333 3.46667 4.33333 3.61111C4.33333 3.75556 4.24757 3.88646 4.11441 3.94288L2.98368 4.42812L2.49844 5.55885C2.44201 5.69201 2.31111 5.77778 2.16667 5.77778C2.02222 5.77778 1.89132 5.69201 1.8349 5.55885L1.34965 4.42812L0.218924 3.94288C0.0857639 3.88646 0 3.75556 0 3.61111C0 3.46667 0.0857639 3.33576 0.218924 3.27934L1.34965 2.7941L1.8349 1.66337C1.89132 1.53021 2.02222 1.44444 2.16667 1.44444C2.31111 1.44444 2.44201 1.53021 2.49844 1.66337ZM10.804 7.80226L11.2892 8.93299L12.42 9.41823C12.5531 9.47465 12.6389 9.60556 12.6389 9.75C12.6389 9.89444 12.5531 10.0253 12.42 10.0818L11.2892 10.567L10.804 11.6977C10.7476 11.8309 10.6167 11.9167 10.4722 11.9167C10.3278 11.9167 10.1969 11.8309 10.1405 11.6977L9.65521 10.567L8.52448 10.0818C8.39132 10.0253 8.30556 9.89444 8.30556 9.75C8.30556 9.60556 8.39132 9.47465 8.52448 9.41823L9.65521 8.93299L10.1405 7.80226C10.1969 7.6691 10.3278 7.58333 10.4722 7.58333C10.6167 7.58333 10.7476 7.6691 10.804 7.80226Z" fill="#6B6F76"/>
</svg>
