<svg width="11" height="11" viewBox="0 0 11 11" fill="none" xmlns="http://www.w3.org/2000/svg">
<path d="M1.95246 3.88622C2.50922 2.57741 3.80764 1.66125 5.31795 1.66125C6.14271 1.66125 6.93422 1.98949 7.51799 2.57326L7.60317 2.65843L6.86151 3.40009C6.7244 3.5372 6.64753 3.72417 6.64753 3.91945C6.64753 4.32456 6.97577 4.6528 7.38088 4.6528H9.80529C10.0816 4.6528 10.3039 4.43051 10.3039 4.15421V1.7298C10.3039 1.3247 9.97564 0.996457 9.57053 0.996457C9.37525 0.996457 9.19036 1.07332 9.05117 1.21044L8.30951 1.95417L8.22433 1.86899C7.45359 1.09618 6.40863 0.664062 5.31795 0.664062C3.39422 0.664062 1.74263 1.8316 1.03422 3.49565C0.926187 3.7491 1.0446 4.04203 1.29805 4.15005C1.55151 4.25808 1.84443 4.13967 1.95246 3.88622ZM9.59754 7.14784C9.70557 6.89439 9.58923 6.60147 9.33578 6.49344C9.08233 6.38541 8.7894 6.50175 8.68138 6.7552C8.12254 8.06193 6.8262 8.97393 5.31795 8.97393C4.4932 8.97393 3.70168 8.6457 3.11792 8.06193L3.03274 7.97675L3.7744 7.23509C3.91151 7.09798 3.98838 6.91101 3.98838 6.71573C3.98838 6.31062 3.66014 5.98238 3.25503 5.98238H0.830624C0.55432 5.98238 0.332031 6.20467 0.332031 6.48097V8.90538C0.332031 9.31049 0.660271 9.63872 1.06538 9.63872C1.26066 9.63872 1.44555 9.56186 1.58474 9.42475L2.3264 8.68101L2.41158 8.76619C3.18232 9.53901 4.22728 9.97112 5.31795 9.97112C7.23961 9.97112 8.88704 8.80774 9.59754 7.14784ZM9.30669 3.65562H8.01659L9.30669 2.36551V3.65562ZM1.32922 6.97957H2.61932L1.32922 8.26967V6.97957Z" fill="#6B6F76"/>
</svg>
