<svg width="20" height="20" viewBox="0 0 20 20" fill="none" xmlns="http://www.w3.org/2000/svg">
<path d="M9.82406 6.87686C9.04241 6.87686 8.29278 7.18736 7.74007 7.74007C7.18736 8.29278 6.87686 9.04241 6.87686 9.82406C6.87686 10.6057 7.18736 11.3553 7.74007 11.9081C8.29278 12.4608 9.04241 12.7713 9.82406 12.7713C10.6057 12.7713 11.3553 12.4608 11.9081 11.9081C12.4608 11.3553 12.7713 10.6057 12.7713 9.82406C12.7713 9.04241 12.4608 8.29278 11.9081 7.74007C11.3553 7.18736 10.6057 6.87686 9.82406 6.87686ZM11.2977 9.82406C11.2977 10.2149 11.1424 10.5897 10.8661 10.8661C10.5897 11.1424 10.2149 11.2977 9.82406 11.2977C9.43324 11.2977 9.05842 11.1424 8.78207 10.8661C8.50571 10.5897 8.35046 10.2149 8.35046 9.82406C8.35046 9.43324 8.50571 9.05842 8.78207 8.78207C9.05842 8.50571 9.43324 8.35046 9.82406 8.35046C10.2149 8.35046 10.5897 8.50571 10.8661 8.78207C11.1424 9.05842 11.2977 9.43324 11.2977 9.82406ZM9.17629 1.96484C8.49475 1.96484 7.90224 2.43148 7.7426 3.09154L7.48779 4.14148L7.45402 4.15376L6.53301 3.58888C5.95278 3.23276 5.2037 3.32179 4.72171 3.80378L3.80992 4.72478C3.32793 5.20677 3.2389 5.95585 3.59502 6.53608L4.1599 7.45709L4.14762 7.49086L3.09768 7.74567C2.43148 7.90224 1.96484 8.49475 1.96484 9.17629V10.4718C1.96484 11.1534 2.43148 11.7459 3.09154 11.9055L4.14148 12.1603L4.15376 12.1941L3.58888 13.1151C3.23276 13.6953 3.32179 14.4444 3.80378 14.9264L4.71864 15.8413C5.20063 16.3233 5.94971 16.4123 6.52994 16.0562L7.45095 15.4913L7.48472 15.5036L7.73953 16.5535C7.89917 17.2166 8.49168 17.6802 9.17322 17.6802H10.4688C11.1503 17.6802 11.7428 17.2136 11.9025 16.5535L12.1573 15.5036L12.191 15.4913L13.112 16.0562C13.6923 16.4123 14.4414 16.3233 14.9233 15.8413L15.8382 14.9264C16.3202 14.4444 16.4092 13.6953 16.0531 13.1151L15.4882 12.1941L15.5005 12.1603L16.5504 11.9055C17.2136 11.7459 17.6771 11.1534 17.6771 10.4718V9.17629C17.6771 8.49475 17.2105 7.90224 16.5504 7.7426L15.5005 7.48779L15.4882 7.45402L16.0531 6.53301C16.4092 5.95278 16.3202 5.2037 15.8382 4.72171L14.9233 3.80992C14.4414 3.32793 13.6923 3.2389 13.112 3.59502L12.191 4.1599L12.1573 4.14762L11.9025 3.09768C11.7459 2.43148 11.1534 1.96484 10.4718 1.96484H9.17629ZM9.17629 3.43845H10.4718L10.8187 4.86907C10.8771 5.11467 11.0613 5.31422 11.3007 5.39404C11.5095 5.46465 11.7152 5.54754 11.9117 5.64578C12.1388 5.75937 12.409 5.74709 12.627 5.61508L13.8826 4.84758L14.7975 5.76244L14.03 7.01808C13.898 7.23605 13.8857 7.50621 13.9993 7.73339C14.0975 7.92987 14.1835 8.13249 14.251 8.34432C14.3308 8.58685 14.5304 8.76798 14.776 8.82631L16.2066 9.17322V10.4688L14.776 10.8157C14.5304 10.874 14.3308 11.0582 14.251 11.2977C14.1804 11.5064 14.0975 11.7121 13.9993 11.9086C13.8857 12.1358 13.898 12.4059 14.03 12.6239L14.7975 13.8795L13.8826 14.7944L12.627 14.0269C12.409 13.8949 12.1388 13.8826 11.9117 13.9962C11.7152 14.0944 11.5126 14.1804 11.3007 14.2479C11.0613 14.3278 10.8771 14.5273 10.8187 14.7729L10.4718 16.2035H9.17629L8.82938 14.7729C8.77105 14.5273 8.58685 14.3278 8.34739 14.2479C8.13863 14.1773 7.93294 14.0944 7.73646 13.9962C7.50928 13.8826 7.23912 13.8949 7.02115 14.0269L5.76551 14.7944L4.85065 13.8795L5.61815 12.6239C5.75016 12.4059 5.76244 12.1358 5.64885 11.9086C5.55061 11.7121 5.46465 11.5095 5.39711 11.2977C5.31729 11.0582 5.11774 10.874 4.87214 10.8157L3.44152 10.4688V9.17322L4.87214 8.82631C5.11774 8.76798 5.31729 8.58378 5.39711 8.34432C5.46772 8.13556 5.55061 7.92987 5.64885 7.73339C5.76244 7.50621 5.75016 7.23605 5.61815 7.01808L4.85065 5.76244L5.76551 4.84758L7.02115 5.61508C7.23912 5.74709 7.50928 5.75937 7.73646 5.64578C7.93294 5.54754 8.13556 5.46158 8.34739 5.39404C8.58992 5.31422 8.77105 5.11467 8.82938 4.86907L9.17629 3.43845Z" fill="#212B36"/>
</svg>
