<svg width="12" height="12" viewBox="0 0 12 12" fill="none" xmlns="http://www.w3.org/2000/svg">
<g clip-path="url(#clip0_383_1312)">
<path d="M6.52734 0.365625C6.44531 0.145313 6.23438 0 6 0C5.76562 0 5.55469 0.145313 5.47266 0.365625L4.08281 4.08281L0.365625 5.47266C0.145313 5.55469 0 5.76562 0 6C0 6.23438 0.145313 6.44531 0.365625 6.52734L4.08281 7.91953L5.475 11.6367C5.55469 11.8547 5.76562 12 6 12C6.23438 12 6.44531 11.8547 6.52734 11.6344L7.91953 7.91719L11.6367 6.525C11.8547 6.44531 12 6.23438 12 6C12 5.76562 11.8547 5.55469 11.6344 5.47266L7.91719 4.08281L6.52734 0.365625Z" fill="black"/>
</g>
<defs>
<clipPath id="clip0_383_1312">
<rect width="12" height="12" fill="white"/>
</clipPath>
</defs>
</svg>
