<svg width="14" height="12" viewBox="0 0 14 12" fill="none" xmlns="http://www.w3.org/2000/svg">
<g clip-path="url(#clip0_382_1308)">
<path d="M9.17578 1.24687C9.07031 1.28672 9 1.3875 9 1.5C9 1.6125 9.07031 1.71328 9.17578 1.75313L10.5 2.25L10.9969 3.57422C11.0367 3.67969 11.1375 3.75 11.25 3.75C11.3625 3.75 11.4633 3.67969 11.5031 3.57422L12 2.25L13.3242 1.75313C13.4297 1.71328 13.5 1.6125 13.5 1.5C13.5 1.3875 13.4297 1.28672 13.3242 1.24687L12 0.75L11.5031 -0.574219C11.4633 -0.679688 11.3625 -0.75 11.25 -0.75C11.1375 -0.75 11.0367 -0.679688 10.9969 -0.574219L10.5 0.75L9.17578 1.24687ZM3.93516 4.88672L4.5 3.66562L5.06484 4.88672C5.17734 5.13047 5.37188 5.325 5.61563 5.4375L6.83672 6.00234L5.61563 6.56719C5.37188 6.67969 5.17734 6.87422 5.06484 7.11797L4.5 8.33906L3.93516 7.11797C3.82266 6.87422 3.62812 6.67969 3.38437 6.56719L2.16328 6L3.38672 5.43516C3.63047 5.32266 3.825 5.12812 3.9375 4.88437L3.93516 4.88672ZM3.88125 2.32266L2.91563 4.41562L0.822656 5.38125L0.808594 5.38828C0.717187 5.43047 0.520312 5.52187 0.217969 5.66016C0.084375 5.72109 0 5.85469 0 6C0 6.14531 0.084375 6.27891 0.217969 6.33984C0.520312 6.47813 0.714844 6.56953 0.808594 6.61172L0.822656 6.61875L2.91563 7.58438L3.88125 9.67734L3.88828 9.69141C3.93047 9.78281 4.02187 9.97969 4.16016 10.282C4.22109 10.4156 4.35469 10.5 4.5 10.5C4.64531 10.5 4.77891 10.4156 4.83984 10.282C5.17734 9.55313 5.19375 9.51563 6.08438 7.58672L8.17734 6.62109L8.19141 6.61406C8.28281 6.57188 8.47969 6.48047 8.78203 6.34219C8.91563 6.28125 9 6.14766 9 6.00234C9 5.85703 8.91563 5.72344 8.78203 5.6625C8.05313 5.325 8.01563 5.30859 6.08672 4.41797L5.12109 2.325L5.11406 2.31094C5.07187 2.21953 4.98047 2.02266 4.84219 1.72031C4.78125 1.58672 4.64766 1.50234 4.50234 1.50234C4.35703 1.50234 4.22344 1.58672 4.1625 1.72031C3.83906 2.41875 3.89297 2.30625 3.88359 2.325L3.88125 2.32266ZM9.75 9.75L8.42578 10.2469C8.32031 10.2867 8.25 10.3875 8.25 10.5C8.25 10.6125 8.32031 10.7133 8.42578 10.7531L9.75 11.25L10.2469 12.5742C10.2867 12.6797 10.3875 12.75 10.5 12.75C10.6125 12.75 10.7133 12.6797 10.7531 12.5742L11.25 11.25L12.5742 10.7531C12.6797 10.7133 12.75 10.6125 12.75 10.5C12.75 10.3875 12.6797 10.2867 12.5742 10.2469L11.25 9.75L10.7531 8.42578C10.7133 8.32031 10.6125 8.25 10.5 8.25C10.3875 8.25 10.2867 8.32031 10.2469 8.42578L9.75 9.75Z" fill="black"/>
</g>
<defs>
<clipPath id="clip0_382_1308">
<rect width="13.5" height="12" fill="white"/>
</clipPath>
</defs>
</svg>
