<svg width="20" height="20" viewBox="0 0 20 20" fill="none" xmlns="http://www.w3.org/2000/svg">
<path d="M6.6861 4.17784C6.95933 3.87391 6.93477 3.41034 6.63084 3.13711C6.32691 2.86387 5.86334 2.88843 5.5901 3.19237L3.9016 5.06814L3.22313 4.38967C2.93455 4.10416 2.46791 4.10416 2.17933 4.38967C1.89075 4.67518 1.89075 5.14489 2.17933 5.4304L3.40733 6.6584C3.55162 6.80269 3.74503 6.87944 3.94765 6.8733C4.15027 6.86716 4.34061 6.7812 4.47569 6.63077L6.6861 4.17477V4.17784ZM6.6861 9.08985C6.95933 8.78592 6.93477 8.32235 6.63084 8.04912C6.32691 7.77589 5.86334 7.80045 5.5901 8.10438L3.9016 9.98015L3.22313 9.30168C2.93455 9.0131 2.46791 9.0131 2.1824 9.30168C1.89689 9.59026 1.89382 10.0569 2.1824 10.3424L3.4104 11.5704C3.55469 11.7147 3.7481 11.7915 3.95072 11.7853C4.15334 11.7792 4.34368 11.6932 4.47876 11.5428L6.68917 9.08678L6.6861 9.08985ZM8.59564 5.64837H16.9461C17.3544 5.64837 17.6829 5.31988 17.6829 4.91157C17.6829 4.50326 17.3544 4.17477 16.9461 4.17477H8.59564C8.18733 4.17477 7.85884 4.50326 7.85884 4.91157C7.85884 5.31988 8.18733 5.64837 8.59564 5.64837ZM7.85884 9.82358C7.85884 10.2319 8.18733 10.5604 8.59564 10.5604H16.9461C17.3544 10.5604 17.6829 10.2319 17.6829 9.82358C17.6829 9.41527 17.3544 9.08678 16.9461 9.08678H8.59564C8.18733 9.08678 7.85884 9.41527 7.85884 9.82358ZM6.87644 14.7356C6.87644 15.1439 7.20493 15.4724 7.61324 15.4724H16.9461C17.3544 15.4724 17.6829 15.1439 17.6829 14.7356C17.6829 14.3273 17.3544 13.9988 16.9461 13.9988H7.61324C7.20493 13.9988 6.87644 14.3273 6.87644 14.7356ZM4.91163 14.7356C4.91163 14.475 4.80813 14.2252 4.62389 14.0409C4.43966 13.8567 4.18978 13.7532 3.92923 13.7532C3.66868 13.7532 3.4188 13.8567 3.23457 14.0409C3.05033 14.2252 2.94683 14.475 2.94683 14.7356C2.94683 14.9961 3.05033 15.246 3.23457 15.4303C3.4188 15.6145 3.66868 15.718 3.92923 15.718C4.18978 15.718 4.43966 15.6145 4.62389 15.4303C4.80813 15.246 4.91163 14.9961 4.91163 14.7356Z" fill="#212B36"/>
</svg>
