<svg width="14" height="13" viewBox="0 0 14 13" fill="none" xmlns="http://www.w3.org/2000/svg">
<path d="M0.439347 0.65625C0.439347 0.292578 0.731925 0 1.0956 0H1.9706C2.33427 0 2.62685 0.292578 2.62685 0.65625V3.9375H3.06435C3.42802 3.9375 3.7206 4.23008 3.7206 4.59375C3.7206 4.95742 3.42802 5.25 3.06435 5.25H0.876847C0.513175 5.25 0.220597 4.95742 0.220597 4.59375C0.220597 4.23008 0.513175 3.9375 0.876847 3.9375H1.31435V1.3125H1.0956C0.731925 1.3125 0.439347 1.01992 0.439347 0.65625ZM2.1538 8.45469C1.97607 8.25234 1.65341 8.26602 1.49755 8.4875L1.1913 8.91133C0.980753 9.20664 0.570597 9.275 0.275284 9.06445C-0.0200284 8.85391 -0.0883878 8.44375 0.122159 8.14844L0.425675 7.72188C1.07372 6.81406 2.40263 6.74844 3.13817 7.58789C3.7206 8.25508 3.70692 9.25313 3.1081 9.90391L2.15653 10.9375H3.06435C3.42802 10.9375 3.7206 11.2301 3.7206 11.5938C3.7206 11.9574 3.42802 12.25 3.06435 12.25H0.658097C0.398331 12.25 0.16044 12.0969 0.0565341 11.8563C-0.0473722 11.6156 -0.00088778 11.3395 0.174112 11.148L2.14286 9.01524C2.28778 8.85664 2.29052 8.61602 2.15107 8.45469H2.1538ZM5.68935 1.09375H13.1268C13.4905 1.09375 13.7831 1.38633 13.7831 1.75C13.7831 2.11367 13.4905 2.40625 13.1268 2.40625H5.68935C5.32568 2.40625 5.0331 2.11367 5.0331 1.75C5.0331 1.38633 5.32568 1.09375 5.68935 1.09375ZM5.68935 5.46875H13.1268C13.4905 5.46875 13.7831 5.76133 13.7831 6.125C13.7831 6.48867 13.4905 6.78125 13.1268 6.78125H5.68935C5.32568 6.78125 5.0331 6.48867 5.0331 6.125C5.0331 5.76133 5.32568 5.46875 5.68935 5.46875ZM5.68935 9.84375H13.1268C13.4905 9.84375 13.7831 10.1363 13.7831 10.5C13.7831 10.8637 13.4905 11.1563 13.1268 11.1563H5.68935C5.32568 11.1563 5.0331 10.8637 5.0331 10.5C5.0331 10.1363 5.32568 9.84375 5.68935 9.84375Z" fill="#6B6F76"/>
</svg>
