<svg width="14" height="12" viewBox="0 0 14 12" fill="none" xmlns="http://www.w3.org/2000/svg">
<g clip-path="url(#clip0_274_11180)">
<path d="M2.25 2.625C2.04375 2.625 1.875 2.79375 1.875 3V9C1.875 9.20625 2.04375 9.375 2.25 9.375H8.25C8.45625 9.375 8.625 9.20625 8.625 9V3C8.625 2.79375 8.45625 2.625 8.25 2.625H2.25ZM0.75 3C0.75 2.17266 1.42266 1.5 2.25 1.5H8.25C9.07734 1.5 9.75 2.17266 9.75 3V9C9.75 9.82734 9.07734 10.5 8.25 10.5H2.25C1.42266 10.5 0.75 9.82734 0.75 9V3ZM12.6 2.7375C12.6984 2.66484 12.8156 2.625 12.9375 2.625C13.2492 2.625 13.5 2.87578 13.5 3.1875V8.8125C13.5 9.12422 13.2492 9.375 12.9375 9.375C12.8156 9.375 12.6984 9.33516 12.6 9.2625L10.875 7.96875V6.5625L12.375 7.6875V4.3125L10.875 5.4375V4.03125L12.6 2.7375Z" fill="black"/>
</g>
<defs>
<clipPath id="clip0_274_11180">
<rect width="13.5" height="12" fill="white"/>
</clipPath>
</defs>
</svg>
