<svg width="19" height="19" viewBox="0 0 19 19" fill="none" xmlns="http://www.w3.org/2000/svg">
<g clip-path="url(#clip0_266_8755)">
<path d="M14.8818 8.31365C14.8818 8.31365 15.1224 9.52493 15.1762 9.7789H14.1189C14.2233 9.48911 14.6254 8.36249 14.6254 8.36249C14.619 8.37226 14.7298 8.06619 14.7932 7.87733L14.8818 8.31365ZM18.2342 3.38715V14.8487C18.2342 15.7115 17.5536 16.4116 16.7147 16.4116H1.51952C0.680618 16.4116 0 15.7115 0 14.8487V3.38715C0 2.52428 0.680618 1.82422 1.51952 1.82422H16.7147C17.5536 1.82422 18.2342 2.52428 18.2342 3.38715ZM4.82764 11.5665L6.82834 6.51302H5.48293L4.23883 9.9645L4.1027 9.26444L3.65951 6.93957C3.5867 6.61722 3.36194 6.52605 3.08336 6.51302H1.03517L1.01301 6.61396C1.51319 6.74421 1.95955 6.93306 2.34892 7.17076L3.48223 11.5665H4.82764ZM7.81603 11.573L8.61378 6.51302H7.34118L6.5466 11.573H7.81603ZM12.2448 9.91892C12.2511 9.34258 11.9092 8.90301 11.178 8.54158C10.7316 8.3104 10.4594 8.1541 10.4594 7.91641C10.4657 7.7015 10.6905 7.48009 11.1906 7.48009C11.6053 7.47032 11.9092 7.57126 12.1372 7.6722L12.2511 7.72755L12.4252 6.6335C12.1752 6.53256 11.7763 6.41859 11.2856 6.41859C10.0288 6.41859 9.14561 7.10889 9.13928 8.09224C9.12978 8.81835 9.77241 9.22211 10.2536 9.46632C10.7443 9.71378 10.912 9.87659 10.912 10.0947C10.9057 10.4334 10.5132 10.5897 10.1491 10.5897C9.64262 10.5897 9.37037 10.5083 8.95567 10.3194L8.78789 10.238L8.61061 11.3744C8.90818 11.5144 9.45901 11.6381 10.0288 11.6447C11.3647 11.6479 12.2353 10.9674 12.2448 9.91892ZM16.7147 11.573L15.689 6.51302H14.7045C14.4006 6.51302 14.1695 6.60419 14.0397 6.93306L12.1498 11.573H13.4857C13.4857 11.573 13.7042 10.9478 13.7517 10.8143H15.3851C15.4231 10.9934 15.5371 11.573 15.5371 11.573H16.7147Z" fill="#6B6F76"/>
</g>
<defs>
<clipPath id="clip0_266_8755">
<rect width="18.2342" height="18.2342" fill="white"/>
</clipPath>
</defs>
</svg>
