<svg width="14" height="14" viewBox="0 0 14 14" fill="none" xmlns="http://www.w3.org/2000/svg">
<path d="M13.0245 7.19126C14.3252 5.86606 14.3252 3.71793 13.0245 2.39274C11.7862 1.13121 9.79815 1.06283 8.47892 2.23947L8.33774 2.3668C8.1063 2.57195 8.08315 2.93036 8.28451 3.16616C8.48587 3.40196 8.83766 3.42554 9.0691 3.22039L9.21028 3.09306C10.0898 2.31021 11.4136 2.35501 12.2399 3.19681C13.1055 4.0787 13.1055 5.51001 12.2399 6.39425L9.61762 9.0635C8.75203 9.94539 7.34485 9.94539 6.47925 9.0635C5.653 8.2217 5.60903 6.87293 6.37742 5.97689L6.4862 5.84956C6.68755 5.61376 6.66441 5.2577 6.43296 5.0502C6.20152 4.84269 5.85204 4.86863 5.64837 5.10443L5.53959 5.23176C4.38701 6.57582 4.45412 8.60134 5.69235 9.86286C6.99306 11.1881 9.1015 11.1881 10.4022 9.86286L13.0245 7.19126ZM0.975533 6.66307C-0.325178 7.98826 -0.325178 10.1364 0.975533 11.4592C2.21607 12.7231 4.20417 12.7891 5.52339 11.6125L5.66457 11.4852C5.89602 11.28 5.91916 10.9216 5.7178 10.6858C5.51645 10.45 5.16466 10.4264 4.93321 10.6316L4.79203 10.7589C3.91255 11.5418 2.58869 11.497 1.76244 10.6551C0.896842 9.77326 0.896842 8.34196 1.76244 7.45771L4.38469 4.79082C5.25029 3.90893 6.65515 3.90893 7.52306 4.79082C8.34931 5.63262 8.39329 6.98139 7.6249 7.87743L7.49992 8.02127C7.29856 8.25707 7.32171 8.61313 7.55315 8.82063C7.78459 9.02813 8.13407 9.00219 8.33774 8.7664L8.46272 8.62256C9.61762 7.2785 9.55051 5.25298 8.31228 3.9891C7.01157 2.66391 4.90312 2.66391 3.60241 3.9891L0.975533 6.66307Z" fill="#212B36"/>
</svg>
