<svg width="14" height="14" viewBox="0 0 14 14" fill="none" xmlns="http://www.w3.org/2000/svg">
<path d="M1.14995 1.3752C1.14995 1.00113 1.45089 0.700195 1.82495 0.700195H4.52495C4.89901 0.700195 5.19995 1.00113 5.19995 1.3752C5.19995 1.74926 4.89901 2.0502 4.52495 2.0502H3.84995V6.1002C3.84995 7.84113 5.25901 9.2502 6.99995 9.2502C8.74089 9.2502 10.15 7.84113 10.15 6.1002V2.0502H9.47495C9.10089 2.0502 8.79995 1.74926 8.79995 1.3752C8.79995 1.00113 9.10089 0.700195 9.47495 0.700195H12.175C12.549 0.700195 12.85 1.00113 12.85 1.3752C12.85 1.74926 12.549 2.0502 12.175 2.0502H11.5V6.1002C11.5 8.58645 9.4862 10.6002 6.99995 10.6002C4.5137 10.6002 2.49995 8.58645 2.49995 6.1002V2.0502H1.82495C1.45089 2.0502 1.14995 1.74926 1.14995 1.3752ZM0.699951 12.6252C0.699951 12.2511 1.00089 11.9502 1.37495 11.9502H12.625C12.999 11.9502 13.3 12.2511 13.3 12.6252C13.3 12.9993 12.999 13.3002 12.625 13.3002H1.37495C1.00089 13.3002 0.699951 12.9993 0.699951 12.6252Z" fill="#6B6F76"/>
</svg>
