<svg width="14" height="14" viewBox="0 0 14 14" fill="none" xmlns="http://www.w3.org/2000/svg">
<path d="M0.933333 1.3999C0.685798 1.3999 0.448401 1.49824 0.273367 1.67327C0.098333 1.8483 0 2.0857 0 2.33324C0 2.58077 0.098333 2.81817 0.273367 2.9932C0.448401 3.16824 0.685798 3.26657 0.933333 3.26657C1.18087 3.26657 1.41827 3.16824 1.5933 2.9932C1.76833 2.81817 1.86667 2.58077 1.86667 2.33324C1.86667 2.0857 1.76833 1.8483 1.5933 1.67327C1.41827 1.49824 1.18087 1.3999 0.933333 1.3999ZM4.43333 1.63324C4.04542 1.63324 3.73333 1.94532 3.73333 2.33324C3.73333 2.72115 4.04542 3.03324 4.43333 3.03324H13.3C13.6879 3.03324 14 2.72115 14 2.33324C14 1.94532 13.6879 1.63324 13.3 1.63324H4.43333ZM4.43333 6.2999C4.04542 6.2999 3.73333 6.61199 3.73333 6.9999C3.73333 7.38782 4.04542 7.6999 4.43333 7.6999H13.3C13.6879 7.6999 14 7.38782 14 6.9999C14 6.61199 13.6879 6.2999 13.3 6.2999H4.43333ZM4.43333 10.9666C4.04542 10.9666 3.73333 11.2787 3.73333 11.6666C3.73333 12.0545 4.04542 12.3666 4.43333 12.3666H13.3C13.6879 12.3666 14 12.0545 14 11.6666C14 11.2787 13.6879 10.9666 13.3 10.9666H4.43333ZM1.86667 6.9999C1.86667 6.75237 1.76833 6.51497 1.5933 6.33994C1.41827 6.1649 1.18087 6.06657 0.933333 6.06657C0.685798 6.06657 0.448401 6.1649 0.273367 6.33994C0.098333 6.51497 0 6.75237 0 6.9999C0 7.24744 0.098333 7.48483 0.273367 7.65987C0.448401 7.8349 0.685798 7.93324 0.933333 7.93324C1.18087 7.93324 1.41827 7.8349 1.5933 7.65987C1.76833 7.48483 1.86667 7.24744 1.86667 6.9999ZM0.933333 10.7332C0.685798 10.7332 0.448401 10.8316 0.273367 11.0066C0.098333 11.1816 0 11.419 0 11.6666C0 11.9141 0.098333 12.1515 0.273367 12.3265C0.448401 12.5016 0.685798 12.5999 0.933333 12.5999C1.18087 12.5999 1.41827 12.5016 1.5933 12.3265C1.76833 12.1515 1.86667 11.9141 1.86667 11.6666C1.86667 11.419 1.76833 11.1816 1.5933 11.0066C1.41827 10.8316 1.18087 10.7332 0.933333 10.7332Z" fill="#6B6F76"/>
</svg>
