<svg width="15" height="14" viewBox="0 0 15 14" fill="none" xmlns="http://www.w3.org/2000/svg">
<path d="M12.9983 9.88867H1.97788C0.885528 9.88867 0 10.777 0 11.8729V11.8794C0 12.9753 0.885528 13.8637 1.97788 13.8637H12.9983C14.0907 13.8637 14.9762 12.9753 14.9762 11.8794V11.8729C14.9762 10.777 14.0907 9.88867 12.9983 9.88867Z" fill="white"/>
<path d="M9.1787 0H5.7982C4.70584 0 3.82031 0.888378 3.82031 1.98425V1.99073C3.82031 3.0866 4.70584 3.97498 5.7982 3.97498H9.1787C10.271 3.97498 11.1566 3.0866 11.1566 1.99073V1.98425C11.1566 0.888378 10.271 0 9.1787 0Z" fill="white"/>
<path d="M10.904 4.94727H4.06773C2.97537 4.94727 2.08984 5.83564 2.08984 6.93151V6.938C2.08984 8.03387 2.97537 8.92225 4.06773 8.92225H10.904C11.9963 8.92225 12.8819 8.03387 12.8819 6.938V6.93151C12.8819 5.83564 11.9963 4.94727 10.904 4.94727Z" fill="white"/>
</svg>
