<svg width="255" height="73" viewBox="0 0 255 73" fill="none" xmlns="http://www.w3.org/2000/svg">
<path d="M120.607 55.6201C111.182 55.6201 104.701 50.7465 104.219 43.6771H108.932C109.468 48.4972 114.02 51.5499 120.607 51.5499C126.338 51.5499 129.337 49.1934 129.337 45.2838C129.337 41.4813 126.017 40.0353 122.428 38.9107L115.948 36.8755C112.949 35.9115 105.398 34.3048 105.398 26.9677C105.398 20.9159 110.378 16.9527 118.144 16.9527C126.713 16.9527 132.015 21.2907 132.604 29.2706H127.945C127.57 23.9685 123.874 21.023 117.93 21.023C113.217 21.023 109.896 23.1652 109.896 26.7535C109.896 30.8773 114.181 31.7342 117.394 32.7517L123.446 34.6262C128.212 36.1258 133.943 38.0002 133.943 45.0696C133.943 51.657 128.909 55.6201 120.607 55.6201ZM152.498 55.031H149.338C143.822 55.031 140.876 52.1925 140.876 46.9441V30.3953H135.628V26.6463H140.876V16.9527H145.321V26.6463H152.98V30.3953H145.321V46.9441C145.321 49.7825 146.714 51.2821 149.338 51.2821H152.498V55.031ZM166.412 55.6201C159.504 55.6201 155.541 51.3892 155.541 45.6052V26.6463H159.986V45.4445C159.986 49.5147 162.824 51.7105 166.841 51.7105C172.143 51.7105 175.035 48.1758 175.088 43.8914V26.6463H179.534V55.031H175.999L175.624 50.7465C173.75 53.9599 170.322 55.6201 166.412 55.6201ZM196.148 55.6201C188.543 55.6201 183.241 49.5147 183.241 40.678C183.241 32.0019 188.489 26.0037 196.094 26.0037C200.379 26.0037 203.967 27.8781 206.002 30.8773V14.864H210.447V55.031H206.912L206.43 49.5683C204.556 53.2637 200.807 55.6201 196.148 55.6201ZM196.844 51.7641C202.253 51.7641 206.002 47.1583 206.002 40.5709C206.002 34.1977 202.36 29.8061 197.112 29.8061C191.649 29.8061 187.847 34.2513 187.847 40.678C187.847 47.2118 191.542 51.7641 196.844 51.7641ZM218.005 21.8799C216.13 21.8799 214.684 20.4339 214.684 18.5594C214.684 16.6849 216.13 15.2925 218.005 15.2925C219.879 15.2925 221.272 16.6849 221.272 18.5594C221.272 20.4339 219.879 21.8799 218.005 21.8799ZM220.201 55.031H215.755V26.6463H220.201V55.031ZM237.807 55.6201C228.703 55.6201 223.883 49.1398 223.883 40.5709C223.883 31.0915 230.095 26.0037 237.807 26.0037C246.858 26.0037 251.732 32.5375 251.732 40.5709C251.732 50.3716 245.787 55.6201 237.807 55.6201ZM237.807 51.7641C243.859 51.7641 247.179 46.7298 247.179 40.5709C247.179 34.1977 243.484 29.8597 237.807 29.8597C232.13 29.8597 228.435 34.1977 228.435 40.5709C228.435 47.8545 232.666 51.7641 237.807 51.7641Z" fill="white"/>
<path d="M47.3155 72.1924H66.7336C70.0487 72.1924 72.7361 69.505 72.7361 66.1899V46.7717C72.7361 43.4567 70.0487 40.7692 66.7336 40.7692H47.3155C44.0004 40.7692 41.313 43.4567 41.313 46.7717V66.1899C41.313 69.505 44.0004 72.1924 47.3155 72.1924Z" fill="white"/>
<path d="M57.0301 0L57.0241 0C48.3485 0 41.3156 7.03297 41.3156 15.7086V15.7146C41.3156 24.3902 48.3485 31.4231 57.0241 31.4231H57.0301C65.7057 31.4231 72.7387 24.3902 72.7387 15.7146V15.7086C72.7387 7.03297 65.7057 0 57.0301 0Z" fill="white"/>
<path d="M15.7146 0.000244141L15.7086 0.000244141C7.03303 0.000244141 6.10352e-05 7.03321 6.10352e-05 15.7088L6.10352e-05 15.7148C6.10352e-05 24.3904 7.03303 31.4234 15.7086 31.4234H15.7146C24.3902 31.4234 31.4232 24.3904 31.4232 15.7148V15.7088C31.4232 7.03321 24.3902 0.000244141 15.7146 0.000244141Z" fill="white"/>
<path d="M15.7148 40.7666H15.7088C7.03315 40.7666 0.000183105 47.7996 0.000183105 56.4752L0.000183105 56.4812C0.000183105 65.1568 7.03315 72.1897 15.7088 72.1897H15.7148C24.3904 72.1897 31.4233 65.1568 31.4233 56.4812V56.4752C31.4233 47.7996 24.3904 40.7666 15.7148 40.7666Z" fill="white"/>
</svg>
