<svg width="623" height="89" viewBox="0 0 623 89" fill="none" xmlns="http://www.w3.org/2000/svg">
<path d="M133.895 68.2849H128.004L147.507 20.8832H153.262L172.833 68.2849H166.941L161.388 54.7416H139.448L133.895 68.2849ZM150.418 28.1289L141.615 49.5951H159.222L150.418 28.1289ZM190.017 69.0298C181.485 69.0298 175.187 64.5605 174.713 56.9762H180.198C180.605 61.6487 184.871 64.2219 190.288 64.2219C195.367 64.2219 197.805 62.2581 197.805 58.6691C197.805 55.2833 195.164 54.5384 191.439 53.2518L186.225 51.4911C180.943 49.7305 175.661 48.1053 175.661 41.6045C175.661 35.51 180.402 31.5824 188.257 31.5824C196.18 31.5824 201.665 35.8486 202.545 43.8391H197.06C196.45 38.8281 192.929 36.3903 188.054 36.3903C183.652 36.3903 181.079 38.3541 181.079 41.4691C181.079 45.1935 185.006 45.9384 187.986 46.9541L192.861 48.5793C199.43 50.7463 203.358 52.9809 203.358 58.94C203.358 65.2377 198.753 69.0298 190.017 69.0298ZM220.969 69.0298C212.436 69.0298 206.139 64.5605 205.665 56.9762H211.15C211.556 61.6487 215.822 64.2219 221.24 64.2219C226.318 64.2219 228.756 62.2581 228.756 58.6691C228.756 55.2833 226.115 54.5384 222.391 53.2518L217.177 51.4911C211.895 49.7305 206.613 48.1053 206.613 41.6045C206.613 35.51 211.353 31.5824 219.208 31.5824C227.131 31.5824 232.616 35.8486 233.496 43.8391H228.011C227.402 38.8281 223.88 36.3903 219.005 36.3903C214.603 36.3903 212.03 38.3541 212.03 41.4691C212.03 45.1935 215.958 45.9384 218.937 46.9541L223.813 48.5793C230.381 50.7463 234.309 52.9809 234.309 58.94C234.309 65.2377 229.704 69.0298 220.969 69.0298ZM254.358 69.0298C243.726 69.0298 236.684 61.2424 236.684 50.4754C236.684 38.2187 244.607 31.5824 253.681 31.5824C263.567 31.5824 269.933 38.2187 270.136 49.7305V51.288H242.304C242.643 58.94 247.112 64.1542 254.358 64.1542C259.369 64.1542 263.026 61.6487 264.515 56.9762H270C268.375 64.3573 262.552 69.0298 254.358 69.0298ZM242.643 46.6155H264.244C263.229 40.3179 259.437 36.458 253.681 36.458C247.992 36.458 243.794 40.1824 242.643 46.6155ZM280.44 68.2849H274.82V32.395H279.289L279.831 37.9478C282.269 34.0879 286.941 31.5824 292.088 31.5824C297.505 31.5824 301.568 34.3588 303.396 38.6927C305.699 34.4942 310.642 31.5824 316.127 31.5824C323.711 31.5824 328.587 36.932 328.587 44.2455V68.2849H322.967V44.4486C322.967 39.6407 319.987 36.5257 315.179 36.5257C308.475 36.5257 304.548 40.995 304.48 46.4801V68.2849H298.927V44.4486C298.927 39.6407 295.948 36.5257 291.14 36.5257C284.436 36.5257 280.508 40.995 280.44 46.4801V68.2849ZM353.089 69.0298C347.198 69.0298 342.39 66.118 339.952 61.4455L339.342 68.2849H334.873V17.4973H340.494V38.0155C343.135 34.0879 347.672 31.5824 353.089 31.5824C362.569 31.5824 369.205 39.1667 369.205 50.1368C369.205 61.3101 362.569 69.0298 353.089 69.0298ZM352.209 64.1542C358.845 64.1542 363.382 58.3983 363.382 50.1368C363.382 42.0785 358.845 36.458 352.141 36.458C345.369 36.458 340.494 41.9431 340.494 49.8659C340.494 58.2628 345.369 64.1542 352.209 64.1542ZM379.711 68.2849H374.091V17.4973H379.711V68.2849ZM390.723 81.8283H384.967V77.0881H390.723C394.379 77.0881 395.937 75.8015 396.749 73.6345L398.713 68.2849H397.359L383.138 32.395H389.165L400.812 62.6644L412.053 32.395H417.809L401.693 75.8015C400.203 79.7291 396.885 81.8283 390.723 81.8283ZM453.047 69.0298C441.129 69.0298 432.935 62.8676 432.325 53.929H438.285C438.962 60.0235 444.718 63.8833 453.047 63.8833C460.293 63.8833 464.085 60.9038 464.085 55.9605C464.085 51.1526 459.886 49.3242 455.349 47.9022L447.155 45.3289C443.363 44.11 433.815 42.0785 433.815 32.8013C433.815 25.1493 440.113 20.1383 449.932 20.1383C460.767 20.1383 467.47 25.6233 468.215 35.7131H462.324C461.85 29.0092 457.178 25.2847 449.661 25.2847C443.702 25.2847 439.503 27.9934 439.503 32.5304C439.503 37.7446 444.921 38.8281 448.984 40.1147L456.636 42.4848C462.663 44.3809 469.908 46.751 469.908 55.6896C469.908 64.0188 463.543 69.0298 453.047 69.0298ZM493.37 68.2849H489.374C482.399 68.2849 478.675 64.6959 478.675 58.0597V37.1352H472.039V32.395H478.675V20.1383H484.295V32.395H493.979V37.1352H484.295V58.0597C484.295 61.6487 486.056 63.5447 489.374 63.5447H493.37V68.2849ZM510.963 69.0298C502.228 69.0298 497.217 63.6802 497.217 56.3668V32.395H502.837V56.1636C502.837 61.3101 506.426 64.0865 511.505 64.0865C518.209 64.0865 521.866 59.6172 521.933 54.1998V32.395H527.554V68.2849H523.084L522.61 62.8676C520.24 66.9306 515.907 69.0298 510.963 69.0298ZM548.561 69.0298C538.945 69.0298 532.241 61.3101 532.241 50.1368C532.241 39.1667 538.877 31.5824 548.493 31.5824C553.91 31.5824 558.447 33.9525 561.021 37.7446V17.4973H566.641V68.2849H562.172L561.562 61.3778C559.192 66.0503 554.452 69.0298 548.561 69.0298ZM549.441 64.1542C556.281 64.1542 561.021 58.3305 561.021 50.0014C561.021 41.9431 556.416 36.3903 549.78 36.3903C542.873 36.3903 538.065 42.0108 538.065 50.1368C538.065 58.3983 542.737 64.1542 549.441 64.1542ZM576.197 26.3682C573.827 26.3682 571.999 24.5399 571.999 22.1698C571.999 19.7997 573.827 18.0391 576.197 18.0391C578.567 18.0391 580.328 19.7997 580.328 22.1698C580.328 24.5399 578.567 26.3682 576.197 26.3682ZM578.974 68.2849H573.353V32.395H578.974V68.2849ZM601.235 69.0298C589.724 69.0298 583.629 60.8361 583.629 50.0014C583.629 38.0155 591.484 31.5824 601.235 31.5824C612.68 31.5824 618.842 39.8439 618.842 50.0014C618.842 62.3936 611.325 69.0298 601.235 69.0298ZM601.235 64.1542C608.887 64.1542 613.086 57.7888 613.086 50.0014C613.086 41.9431 608.413 36.458 601.235 36.458C594.057 36.458 589.385 41.9431 589.385 50.0014C589.385 59.2109 594.735 64.1542 601.235 64.1542Z" fill="white"/>
<path d="M55.2661 88.9995H79.8186C84.0102 88.9995 87.4082 85.6015 87.4082 81.4099V56.8574C87.4082 52.6657 84.0102 49.2677 79.8186 49.2677L55.2661 49.2677C51.0744 49.2677 47.6764 52.6657 47.6764 56.8574L47.6764 81.4099C47.6764 85.6015 51.0744 88.9995 55.2661 88.9995Z" fill="white"/>
<path d="M67.5523 0L67.5447 0C56.5752 0 47.6826 8.89256 47.6826 19.8621V19.8697C47.6826 30.8392 56.5752 39.7318 67.5447 39.7318H67.5523C78.5218 39.7318 87.4144 30.8392 87.4144 19.8697V19.8621C87.4144 8.89256 78.5218 0 67.5523 0Z" fill="white"/>
<path d="M19.8697 0.000244141H19.8621C8.89256 0.000244141 0 8.89281 0 19.8623L0 19.8699C0 30.8395 8.89256 39.732 19.8621 39.732H19.8697C30.8392 39.732 39.7318 30.8395 39.7318 19.8699V19.8623C39.7318 8.89281 30.8392 0.000244141 19.8697 0.000244141Z" fill="white"/>
<path d="M19.8698 49.2686H19.8622C8.89269 49.2686 0.00012207 58.1611 0.00012207 69.1307L0.00012207 69.1383C0.00012207 80.1078 8.89269 89.0003 19.8622 89.0003H19.8698C30.8393 89.0003 39.7319 80.1078 39.7319 69.1383V69.1307C39.7319 58.1611 30.8393 49.2686 19.8698 49.2686Z" fill="white"/>
</svg>
