<svg width="1215" height="146" viewBox="0 0 1215 146" fill="none" xmlns="http://www.w3.org/2000/svg">
<path d="M193.412 117.785H181.318L221.353 20.476H233.17L273.344 117.785H261.25L249.851 89.9826H204.811L193.412 117.785ZM227.331 35.3504L209.259 79.4176H245.403L227.331 35.3504ZM310.012 119.314C292.497 119.314 279.568 110.139 278.595 94.57H289.855C290.689 104.162 299.447 109.444 310.568 109.444C320.994 109.444 325.999 105.413 325.999 98.0454C325.999 91.0947 320.577 89.5656 312.932 86.9243L302.228 83.31C291.385 79.6956 280.542 76.3593 280.542 63.0141C280.542 50.5029 290.272 42.4401 306.398 42.4401C322.662 42.4401 333.923 51.1979 335.73 67.6015H324.47C323.219 57.3145 315.99 52.31 305.981 52.31C296.945 52.31 291.663 56.3414 291.663 62.736C291.663 70.3818 299.725 71.9109 305.842 73.9961L315.851 77.3324C329.335 81.7808 337.398 86.3683 337.398 98.6014C337.398 111.53 327.945 119.314 310.012 119.314ZM374.941 119.314C357.426 119.314 344.497 110.139 343.524 94.57H354.784C355.618 104.162 364.376 109.444 375.497 109.444C385.923 109.444 390.928 105.413 390.928 98.0454C390.928 91.0947 385.506 89.5656 377.86 86.9243L367.156 83.31C356.313 79.6956 345.47 76.3593 345.47 63.0141C345.47 50.5029 355.201 42.4401 371.327 42.4401C387.591 42.4401 398.851 51.1979 400.659 67.6015H389.399C388.147 57.3145 380.919 52.31 370.91 52.31C361.874 52.31 356.591 56.3414 356.591 62.736C356.591 70.3818 364.654 71.9109 370.771 73.9961L380.78 77.3324C394.264 81.7808 402.327 86.3683 402.327 98.6014C402.327 111.53 392.874 119.314 374.941 119.314ZM444.875 119.314C423.049 119.314 408.592 103.328 408.592 81.2248C408.592 56.0634 424.857 42.4401 443.484 42.4401C463.78 42.4401 476.848 56.0634 477.265 79.6956V82.8929H420.13C420.825 98.6014 430 109.305 444.875 109.305C455.162 109.305 462.668 104.162 465.726 94.57H476.987C473.65 109.722 461.695 119.314 444.875 119.314ZM420.825 73.301H465.17C463.085 60.3728 455.301 52.4491 443.484 52.4491C431.807 52.4491 423.188 60.0948 420.825 73.301ZM499.809 117.785H488.271V44.1083H497.445L498.557 55.5074C503.562 47.5836 513.154 42.4401 523.719 42.4401C534.84 42.4401 543.181 48.1397 546.934 57.0365C551.66 48.4177 561.808 42.4401 573.069 42.4401C588.638 42.4401 598.647 53.4222 598.647 68.4356V117.785H587.109V68.8526C587.109 58.9827 580.992 52.5881 571.122 52.5881C557.36 52.5881 549.297 61.7629 549.158 73.023V117.785H537.759V68.8526C537.759 58.9827 531.643 52.5881 521.773 52.5881C508.01 52.5881 499.948 61.7629 499.809 73.023V117.785ZM650.336 119.314C638.242 119.314 628.372 113.337 623.367 103.745L622.116 117.785H612.941V13.5254H624.479V55.6464C629.901 47.5836 639.215 42.4401 650.336 42.4401C669.798 42.4401 683.421 58.0096 683.421 80.5297C683.421 103.467 669.798 119.314 650.336 119.314ZM648.529 109.305C662.152 109.305 671.466 97.4893 671.466 80.5297C671.466 63.9871 662.152 52.4491 648.39 52.4491C634.488 52.4491 624.479 63.7091 624.479 79.9737C624.479 97.2113 634.488 109.305 648.529 109.305ZM706.378 117.785H694.84V13.5254H706.378V117.785ZM730.373 145.588H718.557V135.857H730.373C737.879 135.857 741.077 133.216 742.745 128.767L746.776 117.785H743.996L714.803 44.1083H727.175L751.086 106.247L774.162 44.1083H785.978L752.893 133.216C749.835 141.278 743.023 145.588 730.373 145.588ZM861.096 119.314C836.63 119.314 819.809 106.664 818.558 88.3144H830.791C832.181 100.826 843.997 108.749 861.096 108.749C875.97 108.749 883.755 102.633 883.755 92.4848C883.755 82.6149 875.136 78.8616 865.822 75.9423L849.002 70.6598C841.217 68.1575 821.616 63.9871 821.616 44.9424C821.616 29.2339 834.545 18.9469 854.701 18.9469C876.944 18.9469 890.706 30.207 892.235 50.9199H880.141C879.168 37.1576 869.576 29.5119 854.145 29.5119C841.912 29.5119 833.293 35.0724 833.293 44.3863C833.293 55.0903 844.414 57.3145 852.755 59.9558L868.464 64.8212C880.836 68.7136 895.71 73.5791 895.71 91.9288C895.71 109.027 882.643 119.314 861.096 119.314ZM945.263 117.785H937.061C922.743 117.785 915.097 110.418 915.097 96.7942V53.8392H901.474V44.1083H915.097V18.9469H926.635V44.1083H946.514V53.8392H926.635V96.7942C926.635 104.162 930.25 108.054 937.061 108.054H945.263V117.785ZM982.771 119.314C964.838 119.314 954.551 108.332 954.551 93.3189V44.1083H966.089V92.9019C966.089 103.467 973.457 109.166 983.883 109.166C997.645 109.166 1005.15 99.9915 1005.29 88.8705V44.1083H1016.83V117.785H1007.65L1006.68 106.664C1001.82 115.005 992.918 119.314 982.771 119.314ZM1061.34 119.314C1041.6 119.314 1027.84 103.467 1027.84 80.5297C1027.84 58.0096 1041.46 42.4401 1061.2 42.4401C1072.33 42.4401 1081.64 47.3056 1086.92 55.0903V13.5254H1098.46V117.785H1089.28L1088.03 103.606C1083.17 113.198 1073.44 119.314 1061.34 119.314ZM1063.15 109.305C1077.19 109.305 1086.92 97.3503 1086.92 80.2517C1086.92 63.7091 1077.47 52.31 1063.85 52.31C1049.67 52.31 1039.8 63.8481 1039.8 80.5297C1039.8 97.4893 1049.39 109.305 1063.15 109.305ZM1119.47 31.7361C1114.6 31.7361 1110.85 27.9828 1110.85 23.1173C1110.85 18.2518 1114.6 14.6375 1119.47 14.6375C1124.33 14.6375 1127.95 18.2518 1127.95 23.1173C1127.95 27.9828 1124.33 31.7361 1119.47 31.7361ZM1125.17 117.785H1113.63V44.1083H1125.17V117.785ZM1172.26 119.314C1148.63 119.314 1136.11 102.494 1136.11 80.2517C1136.11 55.6464 1152.24 42.4401 1172.26 42.4401C1195.75 42.4401 1208.4 59.3997 1208.4 80.2517C1208.4 105.691 1192.97 119.314 1172.26 119.314ZM1172.26 109.305C1187.97 109.305 1196.58 96.2382 1196.58 80.2517C1196.58 63.7091 1186.99 52.4491 1172.26 52.4491C1157.52 52.4491 1147.93 63.7091 1147.93 80.2517C1147.93 99.1575 1158.91 109.305 1172.26 109.305Z" fill="white"/>
<path d="M138.878 100.104V123.552C138.878 131.844 132.142 138.57 123.832 138.57H4.14569C0.460605 138.57 -1.38657 134.121 1.21984 131.52L29.2747 103.532C31.4737 101.338 34.4597 100.104 37.5707 100.104H138.888H138.878Z" fill="white"/>
<path d="M138.879 47.1379V70.5811C138.879 78.8729 132.143 85.5986 123.829 85.5986H47.2427L82.3575 50.5655C84.5565 48.3713 87.5379 47.1379 90.6489 47.1379H138.884H138.879Z" fill="white"/>
<path d="M138.879 4.1366V17.6205C138.879 25.9122 132.143 32.638 123.829 32.638H100.325L131.815 1.21717C134.421 -1.38353 138.879 0.459594 138.879 4.1366Z" fill="white"/>
</svg>
